<?xml version="1.0" encoding="UTF-8"?>
<svg width="32px" height="24px" viewBox="0 0 32 24" version="1.1" xmlns="http://www.w3.org/2000/svg" xmlns:xlink="http://www.w3.org/1999/xlink">
    <!-- Generator: Sketch 61 (89581) - https://sketch.com -->
    <title>flags/L/BQ-BO - Bonaire</title>
    <desc>Created with Sketch.</desc>
    <defs>
        <rect id="path-1" x="0" y="0" width="32" height="24"></rect>
    </defs>
    <g id="flags/L/BQ-BO---Bonaire" stroke="none" stroke-width="1" fill="none" fill-rule="evenodd">
        <g id="flag">
            <mask id="mask-2" fill="white">
                <use xlink:href="#path-1"></use>
            </mask>
            <g id="mask"></g>
            <g id="contents" mask="url(#mask-2)">
                <polygon id="bg" fill="#FFFFFF" points="0 0 32 0 32 24 0 24"></polygon>
                <polygon id="Path-448" fill="#FEDA00" points="0 10.9333333 0 0 16 0"></polygon>
                <polygon id="Path-451" fill="#00268D" points="2.98427949e-13 24 32.0090023 24 32.0090023 0"></polygon>
                <path d="M13.693961,10.5 L13.7533333,10.5 L14.1491581,10.4882195 L14.1458247,10.3762195 L13.75,10.388 L13.693961,10.5 Z M13.8222479,10.8669523 L14.5294714,11.2208105 L14.5292427,10.5126374 L13.8222479,10.8669523 Z M9.35353533,15.1145679 L8.99918567,15.8228125 L9.7075618,15.8229741 L9.35353533,15.1145679 Z M4.88439698,10.8663297 L4.17717911,10.5125148 L4.17744889,11.2206834 L4.88439698,10.8663297 Z M9.3421363,5.91307963 L9.7080262,5.17609362 L8.99442893,5.16734283 L9.3421363,5.91307963 Z" id="Combined-Shape" stroke="#000000" stroke-width="0.791999975" fill="#FFFFFF"></path>
                <polygon id="Path-450" fill="#F00A17" points="9.37579518 8.3 8.7267643 9.38906063 7.44666667 9.38906063 8.08497406 10.5332357 7.44666667 11.6307285 8.7267643 11.6307285 9.37579518 12.7504626 10.0347247 11.6307285 11.3033045 11.6307285 10.6806088 10.5332357 11.3033045 9.38906063 10.0347247 9.38906063"></polygon>
            </g>
        </g>
    </g>
</svg>