<?xml version="1.0" encoding="UTF-8"?>
<svg width="32px" height="24px" viewBox="0 0 32 24" version="1.1" xmlns="http://www.w3.org/2000/svg" xmlns:xlink="http://www.w3.org/1999/xlink">
    <!-- Generator: Sketch 61 (89581) - https://sketch.com -->
    <title>flags/L/DZ - Algeria</title>
    <desc>Created with Sketch.</desc>
    <defs>
        <rect id="path-1" x="0" y="0" width="32" height="24"></rect>
    </defs>
    <g id="flags/L/DZ---Algeria" stroke="none" stroke-width="1" fill="none" fill-rule="evenodd">
        <g id="flag">
            <mask id="mask-2" fill="white">
                <use xlink:href="#path-1"></use>
            </mask>
            <g id="mask"></g>
            <g id="contents" mask="url(#mask-2)">
                <polygon id="bottom" fill="#F7FCFF" points="16 0 32 0 32 24 16 24"></polygon>
                <polygon id="middle" fill="#36A400" points="0 0 16 0 16 24 0 24"></polygon>
                <g id="mark" transform="translate(10.000000, 6.000000)" fill="#FF0000">
                    <path d="M5.522688,0.0177141118 C8.32606719,0.0177141118 11.004208,3.0062 11.004208,3.0062 C11.004208,3.0062 8.099296,1.53344531 6,1.90157037 C3.900704,2.26969542 2.98787139,4.218729 2.98787139,5.80868 C2.98787139,7.398631 3.53978644,9.53547822 6,9.99789534 C8.46021356,10.4603125 10.84104,8.1605 10.84104,8.1605 C10.84104,8.1605 9.08305053,11.9183656 5.522688,11.9183656 C1.96232547,11.9183656 0.041168,9.49610566 0.041168,5.80868 C0.041168,2.12125434 2.71930881,0.0177141118 5.522688,0.0177141118 Z M8.02912,2.77114 L9.033472,4.54174 L10.735984,4.54372 L9.073616,5.80868 L10.161088,7.85792 L8.099296,6.70586 L6.276064,7.80658 L6.888816,5.79168 L5.137552,4.54372 L6.935632,4.55674 L8.02912,2.77114 Z" id="Combined-shape-1695"></path>
                </g>
            </g>
        </g>
    </g>
</svg>