<?xml version="1.0" encoding="UTF-8"?>
<svg width="32px" height="24px" viewBox="0 0 32 24" version="1.1" xmlns="http://www.w3.org/2000/svg" xmlns:xlink="http://www.w3.org/1999/xlink">
    <!-- Generator: Sketch 61 (89581) - https://sketch.com -->
    <title>flags/L/GQ - Equatorial Guinea</title>
    <desc>Created with Sketch.</desc>
    <defs>
        <rect id="path-1" x="0" y="0" width="32" height="24"></rect>
        <rect id="path-3" x="0" y="0" width="32" height="24"></rect>
        <polygon id="path-5" points="0 0 0 24 8 12.1519538"></polygon>
    </defs>
    <g id="flags/L/GQ---Equatorial-Guinea" stroke="none" stroke-width="1" fill="none" fill-rule="evenodd">
        <g id="flag">
            <mask id="mask-2" fill="white">
                <use xlink:href="#path-1"></use>
            </mask>
            <g id="mask"></g>
            <g id="contents" mask="url(#mask-2)">
                <mask id="mask-4" fill="white">
                    <use xlink:href="#path-3"></use>
                </mask>
                <use id="background" fill="#F7FCFF" xlink:href="#path-3"></use>
                <rect id="top-n-bottom" fill="#009D00" mask="url(#mask-4)" x="0" y="0" width="32" height="8"></rect>
                <rect id="top-n-bottom" fill="#FFFFFF" mask="url(#mask-4)" x="0" y="8" width="32" height="8"></rect>
                <rect id="top-n-bottom" fill="#F80000" mask="url(#mask-4)" x="0" y="16" width="32" height="8"></rect>
                <mask id="mask-6" fill="white">
                    <use xlink:href="#path-5"></use>
                </mask>
                <use id="triangle" fill="#0075D5" xlink:href="#path-5"></use>
            </g>
            <g id="stars" mask="url(#mask-2)" fill="#FFD500" stroke="#000000" stroke-width="0.05">
                <g transform="translate(13.000000, 7.600000)" id="Star">
                    <path d="M1.48836647,1.72787171 L1.51163353,1.72787171 L1.76925242,1.90873462 L1.72031384,1.55935209 L1.9719333,1.37023168 L1.62452791,1.30880989 L1.5224184,1.01106414 L1.35664864,1.32248593 L1.04192203,1.32758934 L1.28687608,1.58148038 L1.19447385,1.88238021 L1.48836647,1.72787171 Z" transform="translate(1.500000, 1.500000) scale(1, -1) rotate(-15.000000) translate(-1.500000, -1.500000) "></path>
                    <path d="M2.48836647,1.72787171 L2.51163353,1.72787171 L2.76925242,1.90873462 L2.72031384,1.55935209 L2.9719333,1.37023168 L2.62452791,1.30880989 L2.5224184,1.01106414 L2.35664864,1.32248593 L2.04192203,1.32758934 L2.28687608,1.58148038 L2.19447385,1.88238021 L2.48836647,1.72787171 Z" transform="translate(2.500000, 1.500000) scale(1, -1) rotate(-15.000000) translate(-2.500000, -1.500000) "></path>
                    <path d="M3.48836647,1.72787171 L3.51163353,1.72787171 L3.76925242,1.90873462 L3.72031384,1.55935209 L3.9719333,1.37023168 L3.62452791,1.30880989 L3.5224184,1.01106414 L3.35664864,1.32248593 L3.04192203,1.32758934 L3.28687608,1.58148038 L3.19447385,1.88238021 L3.48836647,1.72787171 Z" transform="translate(3.500000, 1.500000) scale(1, -1) rotate(-15.000000) translate(-3.500000, -1.500000) "></path>
                    <path d="M4.48836647,1.72787171 L4.51163353,1.72787171 L4.76925242,1.90873462 L4.72031384,1.55935209 L4.9719333,1.37023168 L4.62452791,1.30880989 L4.5224184,1.01106414 L4.35664864,1.32248593 L4.04192203,1.32758934 L4.28687608,1.58148038 L4.19447385,1.88238021 L4.48836647,1.72787171 Z" transform="translate(4.500000, 1.500000) scale(1, -1) rotate(-15.000000) translate(-4.500000, -1.500000) "></path>
                    <path d="M5.48836647,1.72787171 L5.51163353,1.72787171 L5.76925242,1.90873462 L5.72031384,1.55935209 L5.9719333,1.37023168 L5.62452791,1.30880989 L5.5224184,1.01106414 L5.35664864,1.32248593 L5.04192203,1.32758934 L5.28687608,1.58148038 L5.19447385,1.88238021 L5.48836647,1.72787171 Z" transform="translate(5.500000, 1.500000) scale(1, -1) rotate(-15.000000) translate(-5.500000, -1.500000) "></path>
                    <path d="M6.48836647,1.72787171 L6.51163353,1.72787171 L6.76925242,1.90873462 L6.72031384,1.55935209 L6.9719333,1.37023168 L6.62452791,1.30880989 L6.5224184,1.01106414 L6.35664864,1.32248593 L6.04192203,1.32758934 L6.28687608,1.58148038 L6.19447385,1.88238021 L6.48836647,1.72787171 Z" transform="translate(6.500000, 1.500000) scale(1, -1) rotate(-15.000000) translate(-6.500000, -1.500000) "></path>
                </g>
            </g>
            <path d="M15.05,10.05 L15.05,13 C15.05,14.0769553 15.9230447,14.95 17,14.95 C18.0769553,14.95 18.95,14.0769553 18.95,13 L19,10.05 L15.05,10.05 Z" id="Rectangle" stroke="#373737" stroke-width="0.1" mask="url(#mask-2)"></path>
            <path d="M16.7263873,11.9598267 C16.5919075,13.5366776 16.4575483,14.3728846 16.3233097,14.4684477 C16.1219519,14.6117923 17.2882474,14.6833741 17.3996908,14.5759109 C17.5111341,14.4684477 16.8910798,12.5410448 17.104378,11.9598267 C17.2465768,11.5723481 17.4321951,11.3629094 17.6612328,11.3315106 C17.372504,11.2704821 17.1868857,11.2981018 17.104378,11.4143695 C17.0218703,11.5306372 16.8575798,11.5030176 16.6115065,11.3315106 L16.7263873,11.9598267 Z" id="Path-456" fill="#6F3E1D" mask="url(#mask-2)"></path>
            <path d="M16.6822783,11.8261737 L16.5270837,11.8261737 C16.4570333,12.1 16.3416749,12.1684566 16.1810084,12.0315434 C16.0203419,11.8946303 15.8266724,11.8503064 15.6,11.8985718 C15.6203278,11.7347086 15.7538333,11.6202064 16.0005163,11.5550653 C16.2471994,11.4899241 16.4227219,11.1928758 16.5270837,10.6639205 C16.8761725,10.5339796 17.1569027,10.6021516 17.3692743,10.8684364 C17.5816459,11.1347212 17.8374223,11.2110607 18.1366035,11.097455 C18.3552664,11.2217895 18.4099321,11.3743263 18.3006007,11.5550653 C18.1366035,11.8261737 17.8568249,12.0245 17.6130496,11.8261737 C17.4505327,11.6939563 17.1402756,11.6939563 16.6822783,11.8261737 Z" id="Path-457" fill="#009D29" mask="url(#mask-2)"></path>
        </g>
    </g>
</svg>