<?xml version="1.0" encoding="UTF-8"?>
<svg width="32px" height="24px" viewBox="0 0 32 24" version="1.1" xmlns="http://www.w3.org/2000/svg" xmlns:xlink="http://www.w3.org/1999/xlink">
    <!-- Generator: Sketch 61 (89581) - https://sketch.com -->
    <title>flags/L/LI - Liechtenstein</title>
    <desc>Created with Sketch.</desc>
    <defs>
        <rect id="path-1" x="0" y="0" width="32" height="24"></rect>
        <rect id="path-3" x="0" y="0" width="32" height="24"></rect>
    </defs>
    <g id="flags/L/LI---Liechtenstein" stroke="none" stroke-width="1" fill="none" fill-rule="evenodd">
        <g id="flag">
            <mask id="mask-2" fill="white">
                <use xlink:href="#path-1"></use>
            </mask>
            <g id="mask"></g>
            <g id="contents" mask="url(#mask-2)">
                <mask id="mask-4" fill="white">
                    <use xlink:href="#path-3"></use>
                </mask>
                <use id="background" fill="#E31D1C" xlink:href="#path-3"></use>
                <rect id="top" fill="#2E42A5" mask="url(#mask-4)" x="0" y="0" width="32" height="12"></rect>
                <g id="mark" mask="url(#mask-4)">
                    <g transform="translate(4.000000, 0.000000)">
                        <path d="M0.798452857,11.0531734 C1.60289515,11.553903 2.9371736,11.8042679 4.80128821,11.8042679 C6.66540282,11.8042679 8.092193,11.553903 9.08165875,11.0531734 C7.61976726,10.2033546 6.23526067,9.77844525 4.92813898,9.77844525 C3.6210173,9.77844525 2.24445525,10.2033546 0.798452857,11.0531734 Z" id="Path-131" stroke="none" fill="#000000"></path>
                        <path d="M0.654558784,6.86793894 C-0.226905032,5.35310017 -0.109877071,4.20403252 1.05073073,3.54672845 C1.94887844,3.03806727 2.66140975,3.0781009 3.84469673,3.47030107 C4.50756767,3.69000948 4.68065389,3.73623783 4.94107156,3.73623783 C5.20253815,3.73623783 5.4079061,3.68429317 6.16224044,3.45281033 C6.46552779,3.35974044 6.65991976,3.30449502 6.86493323,3.25668602 C7.73687994,3.05334866 8.39323935,3.11479238 8.92330771,3.5755894 C9.73020705,4.27704008 9.89084249,5.37272269 9.43425879,6.81753642 L9.37906093,6.99220456 L0.726867238,6.99220456 L0.654558784,6.86793894 Z" id="Path-130" stroke="#000000" stroke-width="0.5" fill="#FFD83D"></path>
                        <path d="M-0.113836008,6.90599943 C1.01613939,6.3105072 2.71064272,6.0175797 4.97518936,6.0175797 C7.23973599,6.0175797 8.93423932,6.3105072 10.0642147,6.90599943 L10.258911,7.00860356 L8.91433502,10.6039356 L8.68904618,10.5344162 C7.48627992,10.1632681 6.25491871,9.97775205 4.99413267,9.97775205 C3.73269337,9.97775205 2.47719139,10.1634644 1.22692432,10.5351652 L1.00125975,10.6022546 L-0.306797698,7.00768942 L-0.113836008,6.90599943 Z" id="Path-129" stroke="#000000" stroke-width="0.5" fill="#FFD83D"></path>
                        <ellipse id="Oval-28" stroke="#000000" stroke-width="0.5" fill="#FFD83D" cx="4.87394958" cy="3.16981132" rx="1" ry="1.09528302"></ellipse>
                        <path d="M4.87396373,0.0213194682 L4.85805898,0.25 L4.89003544,0.25 L4.87396373,0.0213194682 Z M4.78668818,1.1339627 L4.78949366,1.18812865 L4.95553664,1.21051585 L4.95637707,1.19395944 L4.95056154,1.11121173 L4.78668818,1.1339627 Z M4.8627668,2.60283019 L4.87392512,2.81826646 L4.88486095,2.60283019 L4.8627668,2.60283019 Z M5.33248683,0.635046249 L5.8802521,0.557287602 L5.8802521,1.76722436 L5.31601068,1.68715916 L5.38933404,3.10283019 L4.35883653,3.10283019 L4.43064558,1.68818868 L3.86764706,1.76635127 L3.86764706,0.559314004 L4.41573429,0.633211364 L4.35366204,-0.25 L5.39404186,-0.25 L5.33248683,0.635046249 Z" id="Combined-Shape" stroke="#000000" stroke-width="0.5" fill="#FFD83D"></path>
                    </g>
                </g>
            </g>
        </g>
    </g>
</svg>