<?xml version="1.0" encoding="UTF-8"?>
<svg width="32px" height="24px" viewBox="0 0 32 24" version="1.1" xmlns="http://www.w3.org/2000/svg" xmlns:xlink="http://www.w3.org/1999/xlink">
    <!-- Generator: Sketch 61 (89581) - https://sketch.com -->
    <title>flags/L/SH - Saint Helena</title>
    <desc>Created with Sketch.</desc>
    <defs>
        <rect id="path-1" x="0" y="0" width="32" height="24"></rect>
        <rect id="path-3" x="0" y="0" width="32" height="24"></rect>
        <rect id="path-5" x="0" y="0" width="18" height="14"></rect>
        <path d="M0.0379462781,0.0326909109 C0.0379462781,5.9194717 -0.322833339,9.96398849 3.95022629,9.96398849 C8.22328593,9.96398849 8.22328593,4.9983397 7.9400373,0.0326909109 L0.0379462781,0.0326909109 Z" id="path-7"></path>
        <rect id="path-9" x="0" y="0" width="12" height="6"></rect>
        <filter x="-4.2%" y="-8.3%" width="108.3%" height="133.3%" filterUnits="objectBoundingBox" id="filter-10">
            <feOffset dx="0" dy="1" in="SourceAlpha" result="shadowOffsetOuter1"></feOffset>
            <feColorMatrix values="0 0 0 0 0   0 0 0 0 0   0 0 0 0 0  0 0 0 0.5 0" type="matrix" in="shadowOffsetOuter1"></feColorMatrix>
        </filter>
    </defs>
    <g id="flags/L/SH---Saint-Helena" stroke="none" stroke-width="1" fill="none" fill-rule="evenodd">
        <g id="flag">
            <mask id="mask-2" fill="white">
                <use xlink:href="#path-1"></use>
            </mask>
            <g id="mask"></g>
            <g id="contents" mask="url(#mask-2)">
                <mask id="mask-4" fill="white">
                    <use xlink:href="#path-3"></use>
                </mask>
                <use id="background" fill="#2E42A5" xlink:href="#path-3"></use>
                <g id="gb---large" mask="url(#mask-4)">
                    <g id="flag">
                        <mask id="mask-6" fill="white">
                            <use xlink:href="#path-5"></use>
                        </mask>
                        <use id="mask" fill="#2B409A" xlink:href="#path-5"></use>
                        <g id="contents" mask="url(#mask-6)">
                            <g transform="translate(-3.000000, -2.000000)">
                                <g id="stripe">
                                    <polygon id="white" fill="#F7FCFF" fill-rule="nonzero" transform="translate(12.087462, 8.731805) scale(1, -1) translate(-12.087462, -8.731805) " points="0.995733743 2.46378897 4.95668418 0.726588534 21.0898804 13.5748663 23.1791912 16.1563978 18.9435246 16.7370214 12.3631795 11.2003309 7.066678 7.46989524"></polygon>
                                    <polygon id="red" fill="#F50100" fill-rule="nonzero" transform="translate(11.983464, 9.146214) scale(1, -1) translate(-11.983464, -9.146214) " points="1.53799381 2.07548339 3.55591517 1.0673567 22.4289341 17.2250722 19.5955377 17.2250722"></polygon>
                                </g>
                                <g id="stripe" transform="translate(12.000000, 8.500000) scale(-1, 1) translate(-12.000000, -8.500000) ">
                                    <polygon id="white" fill="#F7FCFF" fill-rule="nonzero" transform="translate(12.087462, 8.731805) scale(1, -1) translate(-12.087462, -8.731805) " points="0.995733743 2.46378897 4.95668418 0.726588534 21.0898804 13.5748663 23.1791912 16.1563978 18.9435246 16.7370214 12.3631795 11.2003309 7.066678 7.46989524"></polygon>
                                    <polygon id="red" fill="#F50100" fill-rule="nonzero" transform="translate(12.255557, 9.098760) scale(1, -1) translate(-12.255557, -9.098760) " points="1.13088612 2.32417911 3.14880748 1.31605242 11.1851345 8.23400982 13.567733 9.00693659 23.3802288 16.8814684 20.5468324 16.8814684 10.7398496 9.19384456 8.134898 8.26702255"></polygon>
                                </g>
                                <g id="cross" transform="translate(3.000000, 2.000000)">
                                    <path d="M10.7340639,5.25 L18.75,5.25 L18.75,8.75 L10.7340639,8.75 L10.7345755,14.75 L7.23457546,14.75 L7.23406394,8.75 L-0.75,8.75 L-0.75,5.25 L7.23406394,5.25 L7.23457546,-0.75 L10.7345755,-0.75 L10.7340639,5.25 Z" id="red" stroke="#F7FCFF" stroke-width="1.5" fill="#F50100"></path>
                                </g>
                            </g>
                        </g>
                    </g>
                </g>
                <g id="masked" mask="url(#mask-4)">
                    <g transform="translate(22.000000, 10.000000)">
                        <mask id="mask-8" fill="white">
                            <use xlink:href="#path-7"></use>
                        </mask>
                        <path stroke="#F7FCFF" stroke-width="0.5" d="M-0.212053722,-0.217309089 L8.17618328,-0.217309089 L8.18963157,0.0184536506 C8.37838633,3.32752483 8.33294908,5.290826 7.8952362,6.92513532 C7.32159204,9.06697768 6.06189991,10.2139885 3.95022629,10.2139885 C1.9587058,10.2139885 0.808527103,9.36887358 0.258372499,7.64900025 C-0.163150205,6.33125129 -0.233178132,5.01450964 -0.215815905,1.27753346 C-0.213060081,0.684380998 -0.212053722,0.38827925 -0.212053722,0.0326909109 L-0.212053722,-0.217309089 Z"></path>
                        <rect id="Rectangle-58" stroke="none" fill="#2E42A5" fill-rule="evenodd" mask="url(#mask-8)" x="2" y="8" width="6" height="2"></rect>
                        <g id="mark" stroke="none" stroke-width="1" fill="none" fill-rule="evenodd" mask="url(#mask-8)">
                            <g transform="translate(-2.000000, -2.000000)">
                                <g id="Rectangle-56" fill="none">
                                    <use fill="black" fill-opacity="1" filter="url(#filter-10)" xlink:href="#path-9"></use>
                                    <use fill="#FDFF00" fill-rule="evenodd" xlink:href="#path-9"></use>
                                </g>
                                <g id="top" stroke-width="1" fill="none" fill-rule="evenodd" transform="translate(4.000000, 2.000000)">
                                    <path d="M1.10159528,0.504882917 C1.10160317,0.504901424 1.10161105,0.504919931 1.10161894,0.504938439 C1.10253798,0.50503719 1.10349905,0.505161457 1.10450283,0.505310846 C1.10352794,0.505165757 1.10255879,0.505023109 1.10159528,0.504882917 Z M1.14110678,0.625197989 C1.17260647,0.752483509 1.1862441,0.914972257 1.19845111,1.14873932 C1.1940932,1.06540512 1.21432199,1.4705233 1.22130055,1.58848515 C1.22819659,1.70505189 1.2664571,1.7721793 1.36853529,1.86582121 C1.37276071,1.86969742 1.52375771,1.99659958 1.60037056,2.06995167 L1.84913279,1.77225508 C1.76731295,1.68542551 1.68969723,1.58414874 1.61278326,1.46954118 C1.54070232,1.36213519 1.38591379,1.09985697 1.37944637,1.09047797 C1.31736653,1.00045046 1.14795815,0.637742413 1.15950095,0.660327896 C1.15308046,0.647765111 1.14692806,0.636067339 1.14110678,0.625197989 Z M1.82518077,2.45002025 C1.83537928,2.49652572 1.8407555,2.5455015 1.8407555,2.59735161 C1.8407555,3.25766288 1.717962,3.85449365 1.17831196,3.85464597 C1.2471192,3.85481353 1.16392834,3.8828509 1.18192906,3.87627419 C1.16292377,3.88314774 1.15251307,3.88691293 1.14217767,3.89049689 C1.15231983,3.63960936 1.2881278,3.49872489 1.52652862,3.32027727 C1.60822303,3.25912741 1.68882183,3.2100285 1.7724551,3.17763402 C1.87305784,3.1386666 1.97254422,3.12046118 2.09912869,3.14744938 C2.35206794,3.2013768 2.51073307,3.42062088 2.51073307,3.65917366 C2.51073307,3.656085 2.52141493,3.69723253 2.54518691,3.76627659 L2.06108549,3.76627659 C2.06108549,3.8844211 2.10446853,3.97092008 2.15676825,4.02442422 C2.15297786,4.03123451 2.14920146,4.03860604 2.14470585,4.04803349 C2.11637553,4.04124019 2.08075681,4.0339347 2.03857901,4.02692459 L1.55271858,3.9461727 L1.62614376,3.45915117 C1.70243331,2.95313061 1.76014891,2.64170265 1.82518077,2.45002025 Z M1.03110278,3.7662773 C1.06203568,3.6657249 1.05416764,3.56420996 0.942014165,3.40861228 C0.76709937,3.33347006 0.645916424,3.28141068 0.556623525,3.25081804 L0.718987665,3.04907069 C0.748202409,3.04980467 0.777777658,3.05268075 0.807583383,3.05780954 C1.17227756,3.12056402 1.47113028,3.55109566 1.17135807,3.91486813 C1.22130619,3.88436236 1.22095312,3.87692976 1.22241114,3.84578457 C1.22137482,3.86801324 1.22111728,3.88475197 1.22118407,3.90856207 C1.22181085,3.91843281 1.22181085,3.91843281 1.217659,3.8688582 C1.21284322,3.83699384 1.21220741,3.83278692 0.904443675,3.57168732 C0.892482768,3.52519457 0.876994422,3.46499046 0.856523174,3.38541752 L0.80617038,3.18969325 L0.905962093,3.01395195 L1.13505206,2.62680361 L1.27178268,2.46317652 L1.43623328,3.48970529 C1.4582128,3.62690527 1.47478184,3.71840328 1.48267192,3.75092067 C1.48273142,3.75055608 1.48088257,3.74518249 1.47187214,3.71899418 C1.50232645,3.6304922 1.50232645,3.6304922 0.848950433,3.43467266 C0.820862918,3.4443161 0.795140012,3.45231519 0.771582965,3.45910712 C0.761804071,3.45082599 0.751808163,3.44236143 0.741590365,3.43370896 L0.670270563,3.48518591 C0.574823489,3.50768596 0.53821574,3.5150011 0.524272349,3.58670906 C0.607653065,3.30247409 0.857961988,2.99170716 1.26995666,2.99170716 C1.52974912,2.99170716 1.73966878,3.12562136 1.85306692,3.32812353 C1.91355326,3.43613778 1.93586781,3.53570139 1.94089032,3.62508092 L1.03110278,3.7662773 Z M1.22241114,3.84578457 C1.22245883,3.84476575 1.22250847,3.84372155 1.22256059,3.84265097 C1.22251043,3.84368122 1.22246191,3.84469897 1.22241498,3.84570539 Z M1.48267192,3.75092067 C1.48276886,3.75132017 1.48286448,3.75171077 1.48295879,3.75209244 C1.48301008,3.75206185 1.48305084,3.75203753 1.4829853,3.75173355 Z M2.20283857,1.98913919 L2.25472882,2.06057876 C2.21873013,2.04603366 2.18390226,2.02948723 2.1500919,2.01098835 C2.1670967,2.00286501 2.18468927,1.99556551 2.20283857,1.98913919 Z M1.88097999,2.31758625 C1.88182613,2.31601891 1.88267432,2.31446566 1.88352459,2.31292636 C1.88201678,2.31565602 1.88052469,2.31857835 1.87912041,2.32144699 Z M2.83531476,1.95975394 C2.99360069,1.96255728 3.1299168,1.98526579 3.24888281,2.02702263 C3.25397288,2.03600316 3.25935114,2.04483083 3.26501337,2.05348493 C3.24773348,2.11642843 3.24818382,2.17743608 3.26124081,2.23424853 C3.06027279,2.21531429 2.82835566,2.18662358 2.63399564,2.15362105 L2.83531476,1.95975394 Z M3.27060738,2.03493181 C3.40301155,2.08489364 3.5135043,2.15924396 3.60880627,2.25673626 C3.62136693,2.25768586 3.63417249,2.258172 3.64721833,2.258172 C3.63566674,2.258172 3.62314898,2.25801263 3.60974755,2.25770043 C3.65733897,2.306513 3.70113975,2.36110772 3.74198947,2.42132886 C3.91033993,2.14631375 3.76937548,1.8576618 3.55384879,1.74243683 C3.54329655,1.73808028 3.53390986,1.73420494 3.52553842,1.73075612 C3.50834751,1.74214893 3.48742868,1.75804447 3.46001357,1.78054396 C3.3572717,1.86486388 3.29806198,1.95139093 3.27060738,2.03493181 Z M3.05956359,2.58929706 C3.05877636,2.58865982 3.0581344,2.58815711 3.05764614,2.58779475 C3.05851998,2.58851593 3.05930472,2.58916357 3.06007054,2.58977706 Z M3.52553842,1.73075612 C3.4662289,1.70632214 3.4578787,1.70329725 3.44704425,1.70224016 C3.45506603,1.70312945 3.47925902,1.70437525 3.50774974,1.70437525 C3.54301496,1.70437525 3.57845191,1.70259121 3.6041071,1.69979291 C3.5752314,1.70436737 3.55638713,1.71031199 3.52553842,1.73075612 Z M3.44704425,1.70224016 C3.44556277,1.70209562 3.44403484,1.70198787 3.44232383,1.70186721 C3.4430164,1.70198282 3.44415593,1.70211576 3.44569572,1.70225882 Z M3.47363987,2.52280696 C3.47418982,2.52315616 3.47474,2.5235039 3.47529039,2.5238502 C3.47401106,2.52304527 3.4706769,2.52139751 3.46543785,2.51902439 Z M2.72459887,2.95925339 C2.56642294,2.95840142 2.43942691,2.95495371 2.4672258,2.95010096 C2.63309783,2.92114529 2.76997949,2.79726574 2.82176844,2.64747301 C2.8192139,2.66323623 2.79631249,2.72864053 2.75885934,2.79644377 C2.75659868,2.80053634 2.74386789,2.85859519 2.72459887,2.95925339 Z M2.68498588,3.17662571 C2.66381451,3.29796743 2.63973065,3.44398909 2.61496905,3.60823015 L2.12055641,3.53369066 L2.2025338,3.04045673 C2.38999249,3.0716131 2.55292389,3.11400066 2.68498588,3.17662571 Z M2.28994847,3.95904752 L2.1401731,3.65612358 L2.59181529,3.87064474 C2.58291713,3.8893785 2.58390112,3.88138081 2.57919359,3.86464105 L2.28994847,3.95904752 Z M1.59103496,4.06665329 C1.57289513,4.01242738 1.55772287,3.96147263 1.54562654,3.91305381 C1.55549448,3.92238381 1.56573085,3.93129314 1.57628577,3.93976832 C1.6071028,3.99372532 1.64708151,4.03572368 1.69248552,4.06719439 C1.67484048,4.06823491 1.65802342,4.06879714 1.64156526,4.06879714 C1.62438032,4.06879714 1.60753223,4.06807022 1.59103496,4.06665329 Z M1.80695878,3.55915957 C1.47063181,3.38393338 1.43650616,3.42166783 1.25389898,3.6235858 C1.19416627,3.7182853 1.19416627,3.7182853 1.20571736,3.69777897 C1.24496454,3.60844495 1.26549027,3.56551865 1.30656382,3.4974536 C1.38077126,3.37448068 1.470219,3.27100004 1.59178181,3.19273901 C1.54188676,3.22514501 1.50452602,3.26108437 1.45736479,3.3650845 C1.40926428,3.47115593 1.3965258,3.5687077 1.408927,3.65497354 L1.13444021,3.67039778 C1.10185649,3.52417915 1.13229583,3.36169299 1.2425483,3.22733466 C1.30196292,3.15492949 1.37173932,3.10323835 1.45449792,3.05625717 C1.60006062,2.97362277 1.77195545,2.91643773 1.94263407,2.9134782 C1.74718426,2.91793561 1.65443527,3.01434493 1.62490379,3.08799272 C1.6455137,3.00403459 1.65968477,2.89960961 1.66862909,2.75956909 L2.16761237,2.79143891 L1.76306714,3.08528098 L1.52193238,2.7533002 L1.92647761,2.45945814 L2.31015578,2.78006859 L1.95352364,3.19430411 L1.7755489,3.50773205 L1.3407555,3.260842 L1.82498782,3.13626649 C1.90908979,3.4631758 1.90908979,3.4631758 1.92591019,3.52855766 L1.80695878,3.55915957 Z M1.59178181,3.19273901 C1.59520203,3.1905371 1.59864767,3.18835516 1.60211912,3.18619331 C1.59859236,3.18838961 1.59513089,3.1905821 1.5917276,3.19279131 Z M1.51454954,3.88085064 C1.51496442,3.88132254 1.5153802,3.88179359 1.51579688,3.88226377 C1.51559404,3.9019868 1.51498259,3.90980884 1.5117781,3.95080302 C1.5262797,3.98123937 1.53359581,3.99659462 1.49259591,4.04914002 C1.44131945,4.03498977 1.3944978,4.01365111 1.35269162,3.98660655 C1.46897348,3.97080662 1.50730699,3.92130675 1.51454954,3.88085064 Z M1.35269162,3.98660655 C1.32978708,3.97178953 1.30838803,3.9552598 1.28858665,3.93726115 C1.27360443,3.95659588 1.26008967,3.97449328 1.24808056,3.99086655 C1.2553542,3.99142334 1.2626507,3.99170716 1.26995666,3.99170716 C1.30115916,3.99170716 1.32859855,3.98988023 1.35269162,3.98660655 Z M1.28858665,3.93726115 C1.22856712,3.88270582 1.18322621,3.81465494 1.15513166,3.73989797 L1.33205113,3.88228089 C1.31641846,3.90170544 1.30192132,3.92005259 1.28858665,3.93726115 Z M1.15513166,3.73989797 C1.14663243,3.71728232 1.13971158,3.69405293 1.13444021,3.67039778 L1.07305924,3.67384696 L1.15513166,3.73989797 Z M1.94263407,2.9134782 C1.94725849,2.91339802 1.95188202,2.91335764 1.95650411,2.91335764 C1.95176523,2.91335764 1.94708435,2.91341073 1.94246095,2.91351538 Z M1.62490379,3.08799272 C1.62366098,3.09109212 1.62253014,3.09415121 1.62150833,3.09716143 C1.62448403,3.08839511 1.6274551,3.07797752 1.63039031,3.06595901 Z M1.07305924,3.67384696 L0.942465414,3.68118542 C0.945220165,3.73020845 0.953967453,3.76923731 0.980555248,3.8167168 C1.02899695,3.90322219 1.11956768,3.969266 1.21791075,3.98699045 C1.21608193,3.99965323 1.21339134,4.01772929 1.20944212,4.04426114 C1.20231873,4.07186609 1.20125612,4.07598396 0.893812665,4.29600576 C0.516016659,4.18008156 0.519374668,4.16563783 0.539293554,4.07996119 C0.520696157,4.0260163 0.520696157,4.0260163 0.512156685,3.99197422 C0.495469854,3.92444258 0.475488957,3.81433888 0.448823574,3.64788898 L0.942528425,3.56879714 L1.07305924,3.67384696 Z M1.21791075,3.98699045 C1.21859012,3.98711289 1.21926985,3.98723303 1.21994994,3.98735085 C1.2207091,3.97810611 1.22129531,3.96760223 1.22167472,3.95560313 C1.2215342,3.96052752 1.22079191,3.96704125 1.21791075,3.98699045 Z M1.21994994,3.98735085 C1.22926901,3.98896531 1.2386556,3.99014508 1.24808056,3.99086655 C1.23016974,4.01528622 1.21560805,4.03631564 1.20452218,4.05366684 C1.21253883,4.03656237 1.21729892,4.01963387 1.21994994,3.98735085 Z M1.22167472,3.95560313 C1.22194304,3.94711734 1.22210793,3.93788373 1.22215742,3.92781883 C1.22213037,3.93393542 1.22204118,3.9373343 1.22170168,3.95027318 C1.22172533,3.95219759 1.22174474,3.95377714 1.22168936,3.95555273 Z M1.22215742,3.92781883 C1.22216792,3.92568387 1.22217323,3.92351152 1.22217323,3.92130096 C1.22217031,3.92430178 1.22216817,3.92651431 1.22215824,3.92846375 Z M0.798334342,2.9511728 C0.811344589,2.94688484 0.815395729,2.94542425 0.838758056,2.93700124 C0.886875976,2.91905399 0.886875976,2.91905399 0.948842485,2.89708168 C0.996828838,2.88090822 1.03761305,2.86913188 1.08048405,2.86214492 C0.926661138,2.88801169 0.841977306,2.96898405 0.780709706,3.0664603 C0.768511082,3.08586822 0.763596792,3.09594313 0.761406393,3.1014303 C0.771106102,3.07245832 0.782914112,3.0265461 0.794429187,2.97058564 C0.795751243,2.96416077 0.797053342,2.95768643 0.798334342,2.9511728 Z M0.209626072,0.962177253 C0.214678898,0.964608348 0.220906142,0.969613452 0.228512881,0.977043775 C0.227933044,0.976477385 0.22499205,0.974912487 0.219793041,0.972465785 Z" id="Path-215" stroke="#272727" fill="#F7FCFF"></path>
                                </g>
                                <g id="mast" stroke-width="1" fill="none" fill-rule="evenodd" transform="translate(4.000000, 6.000000)">
                                    <polygon id="Path-217" fill="#FDFF00" fill-rule="nonzero" points="0.82628507 0.0440717015 1.02628507 0.0440717015 1.02628507 3.99926493 0.82628507 3.99926493"></polygon>
                                    <g id="sail" transform="translate(0.000000, 2.666667)">
                                        <path d="M0.100309747,0.145917093 L1.88309784,0.145917093 C1.89456444,0.488877274 1.81008312,0.628631333 1.62965387,0.565179268 C1.35901001,0.470001171 1.65682007,0.660357365 1.2450406,0.565179268 C0.833261128,0.470001171 0.470402238,0.863873658 0.378080049,0.666937415 C0.285757859,0.470001171 -0.0724393764,0.722870132 0.0139351851,0.434393613 C0.0715182261,0.242075933 0.100309747,0.145917093 0.100309747,0.145917093 Z" id="Path-218" fill="#F7FCFF"></path>
                                        <rect id="Rectangle-57" fill="#212123" x="0.133333333" y="0.0972499177" width="1.73333333" height="1"></rect>
                                    </g>
                                    <g id="sail" transform="translate(0.266667, 1.948718)">
                                        <path d="M0.0802477973,0.116733675 L1.50647827,0.116733675 C1.51565155,0.391101819 1.44806649,0.502905066 1.3037231,0.452143414 C1.08720801,0.376000937 1.32545605,0.528285892 0.996032478,0.452143414 C0.666608902,0.376000937 0.37632179,0.691098927 0.302464039,0.533549932 C0.228606287,0.376000937 -0.0579515011,0.578296105 0.0111481481,0.34751489 C0.0572145809,0.193660746 0.0802477973,0.116733675 0.0802477973,0.116733675 Z" id="Path-218" fill="#F7FCFF"></path>
                                        <rect id="Rectangle-57" fill="#212123" x="0.106666667" y="0.0777999342" width="1.38666667" height="1"></rect>
                                    </g>
                                    <g id="sail" transform="translate(0.000000, 1.128205)">
                                        <path d="M0.0869351137,0.116733675 L1.63201813,0.116733675 C1.64195585,0.391101819 1.5687387,0.502905066 1.41236669,0.452143414 C1.17780868,0.376000937 1.43591072,0.528285892 1.07903518,0.452143414 C0.722159644,0.376000937 0.40768194,0.691098927 0.327669375,0.533549932 C0.247656811,0.376000937 -0.0627807929,0.578296105 0.0120771604,0.34751489 C0.0619824626,0.193660746 0.0869351137,0.116733675 0.0869351137,0.116733675 Z" id="Path-218" fill="#F7FCFF"></path>
                                        <rect id="Rectangle-57" fill="#212123" x="0.115555556" y="0.0777999342" width="1.50222222" height="1"></rect>
                                    </g>
                                    <g id="sail" transform="translate(0.133333, 0.410256)">
                                        <path d="M0.0802477973,0.145917093 L1.50647827,0.145917093 C1.51565155,0.488877274 1.44806649,0.628631333 1.3037231,0.565179268 C1.08720801,0.470001171 1.32545605,0.660357365 0.996032478,0.565179268 C0.666608902,0.470001171 0.37632179,0.863873658 0.302464039,0.666937415 C0.228606287,0.470001171 -0.0579515011,0.722870132 0.0111481481,0.434393613 C0.0572145809,0.242075933 0.0802477973,0.145917093 0.0802477973,0.145917093 Z" id="Path-218" fill="#F7FCFF"></path>
                                        <rect id="Rectangle-57" fill="#212123" x="0.106666667" y="0.0972499177" width="1.38666667" height="1"></rect>
                                    </g>
                                </g>
                                <g id="mast" stroke-width="1" fill="none" fill-rule="evenodd" transform="translate(6.000000, 6.500000)">
                                    <polygon id="Path-217" fill="#FDFF00" fill-rule="nonzero" points="0.742448289 0.0440717015 0.942448289 0.0440717015 0.942448289 3.99926493 0.742448289 3.99926493"></polygon>
                                    <g id="sail" transform="translate(0.000000, 2.358974)">
                                        <path d="M0.100309747,0.116733675 L1.88309784,0.116733675 C1.89456444,0.391101819 1.81008312,0.502905066 1.62965387,0.452143414 C1.35901001,0.376000937 1.65682007,0.528285892 1.2450406,0.452143414 C0.833261128,0.376000937 0.470402238,0.691098927 0.378080049,0.533549932 C0.285757859,0.376000937 -0.0724393764,0.578296105 0.0139351851,0.34751489 C0.0715182261,0.193660746 0.100309747,0.116733675 0.100309747,0.116733675 Z" id="Path-218" fill="#F7FCFF"></path>
                                        <rect id="Rectangle-57" fill="#212123" x="0.133333333" y="0.0777999342" width="1.73333333" height="1"></rect>
                                    </g>
                                    <g id="sail" transform="translate(0.285714, 1.641026)">
                                        <path d="M0.0788148009,0.089336996 L1.47957688,0.089336996 C1.48858635,0.295113105 1.42220816,0.378965539 1.28044233,0.340894301 C1.06779358,0.283787443 1.3017872,0.398001159 0.978246184,0.340894301 C0.654705172,0.283787443 0.369601758,0.520110935 0.297062895,0.401949189 C0.224524032,0.283787443 -0.0569166529,0.435508819 0.010949074,0.262422907 C0.0561928919,0.1470323 0.0788148009,0.089336996 0.0788148009,0.089336996 Z" id="Path-218" fill="#F7FCFF"></path>
                                        <rect id="Rectangle-57" fill="#212123" x="0.104761905" y="0.059540766" width="1.36190476" height="1"></rect>
                                    </g>
                                    <g id="sail" transform="translate(0.000000, 0.820513)">
                                        <path d="M0.0859797828,0.089336996 L1.61408386,0.089336996 C1.62391238,0.295113105 1.55149982,0.378965539 1.39684618,0.340894301 C1.16486572,0.283787443 1.42013149,0.398001159 1.06717766,0.340894301 C0.714223824,0.283787443 0.403201918,0.520110935 0.324068613,0.401949189 C0.244935308,0.283787443 -0.0620908941,0.435508819 0.0119444444,0.262422907 C0.0613013367,0.1470323 0.0859797828,0.089336996 0.0859797828,0.089336996 Z" id="Path-218" fill="#F7FCFF"></path>
                                        <rect id="Rectangle-57" fill="#212123" x="0.114285714" y="0.059540766" width="1.48571429" height="1"></rect>
                                    </g>
                                    <g id="sail" transform="translate(0.142857, 0.102564)">
                                        <path d="M0.0788148009,0.116733675 L1.47957688,0.116733675 C1.48858635,0.391101819 1.42220816,0.502905066 1.28044233,0.452143414 C1.06779358,0.376000937 1.3017872,0.528285892 0.978246184,0.452143414 C0.654705172,0.376000937 0.369601758,0.691098927 0.297062895,0.533549932 C0.224524032,0.376000937 -0.0569166529,0.578296105 0.010949074,0.34751489 C0.0561928919,0.193660746 0.0788148009,0.116733675 0.0788148009,0.116733675 Z" id="Path-218" fill="#F7FCFF"></path>
                                        <rect id="Rectangle-57" fill="#212123" x="0.104761905" y="0.0777999342" width="1.36190476" height="1"></rect>
                                    </g>
                                </g>
                                <g id="mast" stroke-width="1" fill="none" fill-rule="evenodd" transform="translate(8.000000, 6.000000)">
                                    <polygon id="Path-217" fill="#FDFF00" fill-rule="nonzero" points="1.49038873 0.0585953304 1.69038873 0.0585953304 1.69038873 5.3172045 1.49038873 5.3172045"></polygon>
                                    <g id="sail" transform="translate(0.545455, 3.136364)">
                                        <path d="M0.12766695,0.116733675 L2.39666998,0.116733675 C2.41126383,0.391101819 2.30374215,0.502905066 2.07410493,0.452143414 C1.7296491,0.376000937 2.10868009,0.528285892 1.58459712,0.452143414 C1.06051416,0.376000937 0.598693758,0.691098927 0.481192789,0.533549932 C0.363691821,0.376000937 -0.09219557,0.578296105 0.0177356901,0.34751489 C0.0910231968,0.193660746 0.12766695,0.116733675 0.12766695,0.116733675 Z" id="Path-218" fill="#F7FCFF"></path>
                                        <rect id="Rectangle-57" fill="#212123" x="0.16969697" y="0.0777999342" width="2.20606061" height="1"></rect>
                                    </g>
                                    <g id="sail" transform="translate(0.909091, 2.181818)">
                                        <path d="M0.100309747,0.0736576743 L1.88309784,0.0736576743 C1.89456444,0.279433783 1.81008312,0.363286218 1.62965387,0.325214979 C1.35901001,0.268108121 1.65682007,0.382321837 1.2450406,0.325214979 C0.833261128,0.268108121 0.470402238,0.504431613 0.378080049,0.386269867 C0.285757859,0.268108121 -0.0724393764,0.419829497 0.0139351851,0.246743586 C0.0715182261,0.131352978 0.100309747,0.0736576743 0.100309747,0.0736576743 Z" id="Path-218" fill="#F7FCFF"></path>
                                        <rect id="Rectangle-57" fill="#212123" x="0.133333333" y="0.0490909091" width="1.73333333" height="1"></rect>
                                    </g>
                                    <g id="sail" transform="translate(0.727273, 0.818182)">
                                        <path d="M0.100309747,0.116733675 L1.88309784,0.116733675 C1.89456444,0.391101819 1.81008312,0.502905066 1.62965387,0.452143414 C1.35901001,0.376000937 1.65682007,0.528285892 1.2450406,0.452143414 C0.833261128,0.376000937 0.470402238,0.691098927 0.378080049,0.533549932 C0.285757859,0.376000937 -0.0724393764,0.578296105 0.0139351851,0.34751489 C0.0715182261,0.193660746 0.100309747,0.116733675 0.100309747,0.116733675 Z" id="Path-218" fill="#F7FCFF"></path>
                                        <rect id="Rectangle-57" fill="#212123" x="0.133333333" y="0.0777999342" width="1.73333333" height="1"></rect>
                                    </g>
                                </g>
                                <path d="M4.18505047,9.68678833 C4.80217167,10.0221009 5.58115993,10.1608799 6.52201525,10.1031254 C7.93329824,10.0164937 7.83195475,10.2888777 8.19801883,9.9013214 C8.56408291,9.51376513 8.59623225,9.60015658 9.05282595,9.39673416 C9.50941965,9.19331175 9.5748874,9.00136414 9.81030825,9.00136414 C9.96725549,9.00136414 10.8812953,8.96782087 12.5524278,8.90073432 C12.3994749,9.03803144 12.3229984,9.20336472 12.3229984,9.39673416 C12.3229984,9.68678833 12.475927,9.7165267 12.3229984,9.97954599 C12.1700698,10.2425653 11.9973402,10.594259 11.7753636,10.6963306 C11.553387,10.7984023 8.55743384,10.8629256 7.7934486,10.8629256 C7.02946337,10.8629256 5.46042942,10.9479953 5.27988164,10.8629256 C5.15951646,10.8062124 4.79457274,10.4141667 4.18505047,9.68678833 Z" id="ship-base" fill="#272727" fill-rule="evenodd"></path>
                                <path d="M2.1176577,7.68638873 L3.01086345,6.86361041 C3.03686365,6.86361041 3.10519678,7.00074013 3.21586285,7.27499957 C3.38186196,7.68638873 3.38971159,8.24906853 3.56240355,8.10853651 C3.7350955,7.96800449 4.00082628,8.09777789 4.11270422,7.68638873 C4.22458217,7.27499957 4.21755881,6.7422705 4.35984376,7.00863504 C4.50212871,7.27499957 4.41760054,6.88561481 4.64466154,7.49707566 C4.87172254,8.10853651 4.96162151,7.23436903 5.08647201,8.10853651 C5.21132251,8.982704 5.31700338,9.28433947 5.31700338,9.48768922 C5.31700338,9.69103898 6.45420881,10.2969109 6.01801703,10.714172 C5.58182525,11.1314331 5.70527108,10.9347828 5.31700338,11.1971671 C4.92873568,11.4595513 4.53088316,11.3069602 5.08647201,11.5130685 C5.64206086,11.7191769 5.56249036,12.092773 5.56249036,12.3682409 C5.56249036,12.6437089 5.52828248,12.7671375 5.08647201,12.7054232 C4.64466154,12.6437089 4.10733342,12.8636104 4,12.8636104 C3.89266658,12.8636104 2.5973943,12.5996498 2.5973943,12.0563592 C2.5973943,11.6941654 2.4374821,10.2375086 2.1176577,7.68638873 Z" id="cliffs" fill="#CE6201" fill-rule="evenodd"></path>
                            </g>
                        </g>
                    </g>
                </g>
            </g>
        </g>
    </g>
</svg>