<?xml version="1.0" encoding="UTF-8"?>
<svg width="32px" height="24px" viewBox="0 0 32 24" version="1.1" xmlns="http://www.w3.org/2000/svg" xmlns:xlink="http://www.w3.org/1999/xlink">
    <!-- Generator: Sketch 61 (89581) - https://sketch.com -->
    <title>flags/L/VU - Vanuatu</title>
    <desc>Created with Sketch.</desc>
    <defs>
        <rect id="path-1" x="0" y="0" width="32" height="24"></rect>
    </defs>
    <g id="flags/L/VU---Vanuatu" stroke="none" stroke-width="1" fill="none" fill-rule="evenodd">
        <g id="flag">
            <mask id="mask-2" fill="white">
                <use xlink:href="#path-1"></use>
            </mask>
            <g id="mask"></g>
            <g id="contents" mask="url(#mask-2)">
                <g transform="translate(0.000000, -72.000000)">
                    <polygon id="middle" stroke="none" fill="#F7FCFF" points="0 72 32 72 32 96 0 96"></polygon>
                    <rect id="top" stroke="none" fill="#C51918" x="0" y="72" width="32" height="8"></rect>
                    <rect id="bottom" stroke="none" fill="#5EAA22" x="0" y="88" width="32" height="8"></rect>
                    <polygon id="triangle" stroke="none" fill="#272727" points="0 70 16.669589 84 0 98"></polygon>
                    <path d="M17.7464253,80.9990745 L33,81.0000649 L33,87.0000639 L17.5019563,86.9990737 L-1,100.805461 L-1,93.8355913 L12.3233476,83.9951658 L-1,74.035492 L-1,66.6175175 L17.7464253,80.9990745 Z" id="Combined-Shape" stroke="#272727" stroke-width="2" fill="#FFD018"></path>
                    <g id="mark" stroke="none" stroke-width="1" fill="none" transform="translate(0.000000, 78.000000)">
                        <path d="M4.8736872,10.7680667 L4.87568541,9.1877118 C6.28401315,8.87702335 7.21696215,8.47289006 7.6710798,7.98689244 C8.78931796,6.60873636 8.04595536,3.37985927 5.74858618,3.40097121 C4.61040348,3.40097121 3.43341271,3.94335367 3.43341271,5.219891 C3.43341271,6.80533363 3.75967555,7.48307633 4.87568541,7.48307633 C5.98473702,7.48307633 6.39134827,7.54236186 7.12189122,6.54665058 L7.91467607,6.79160707 C7.13183038,7.85860564 6.07657989,8.70146989 4.8736872,8.70146989 C2.8921414,8.70146989 1.813786,7.20741534 1.813786,5.47949472 C1.813786,3.34638573 3.54546576,1.8524433 5.63340842,1.8524433 C7.19131943,1.8524433 9.65546316,3.76064654 9.65546316,5.47949472 C9.65546316,7.1983429 9.65546316,7.98689244 8.30429887,9.1877118 C7.76006932,9.67138458 6.41161559,10.5351708 4.8736872,10.7680667 Z" id="Path-290" fill="#FFD018" fill-rule="nonzero"></path>
                        <path d="M4.99142046,3.8798362 C5.06770367,3.89997915 5.11321434,3.97814799 5.0930714,4.0544312 L4.98281777,4.47480429 C5.07960235,4.60087891 5.17154867,4.72119923 5.2587378,4.83590776 L5.39630647,4.53031305 C5.42893252,4.45847707 5.51361572,4.42669115 5.58545169,4.45931721 C5.65728767,4.49194326 5.68907359,4.57662646 5.65644754,4.64846243 L5.45450873,5.09467238 C5.50443053,5.16099724 5.55251545,5.22516956 5.59878334,5.28722423 L5.68202075,5.10174162 C5.71464681,5.02990565 5.79933001,4.99811972 5.87116598,5.03074578 C5.94300195,5.06337183 5.97478787,5.14805503 5.94216182,5.219891 L5.79357271,5.55063093 C5.91414574,5.71520382 6.01918228,5.86182192 6.10919098,5.99137913 L6.25344932,5.67317019 C6.28607538,5.60133422 6.37075858,5.5695483 6.44259455,5.60217435 C6.51443052,5.6348004 6.54621645,5.7194836 6.51359039,5.79131958 L6.3021971,6.25676488 L6.29552609,6.26832268 C6.4529899,6.51242372 6.52833781,6.66471165 6.52833781,6.737081 C6.52833781,6.81597882 6.46437849,6.87993814 6.38548066,6.87993814 C6.30658284,6.87993814 6.24262352,6.81597882 6.24262352,6.737081 C6.24262352,6.70869471 6.18025337,6.60096172 6.05978413,6.42138824 L5.76855224,6.57649403 C5.69903847,6.61381296 5.61243346,6.58771389 5.57511453,6.51820013 C5.53779559,6.44868636 5.56389466,6.36208135 5.63340842,6.32476242 L5.89622928,6.18413798 C5.81445525,6.06794982 5.71869437,5.93467755 5.60947318,5.78524658 L5.19712367,6.00506545 C5.1276099,6.04238439 5.04100489,6.01628532 5.00368595,5.94677156 C4.96636702,5.87725779 4.99246609,5.79065278 5.06197985,5.75333384 L5.43853047,5.55303514 C5.37202624,5.46328177 5.30162101,5.36888802 5.22739939,5.27000256 L4.91140938,5.43363688 C4.84189562,5.47095582 4.7552906,5.44485675 4.71797167,5.37534298 C4.68065274,5.30582922 4.7067518,5.21922421 4.77626557,5.18190527 L5.05085741,5.03584736 C4.9711961,4.93063648 4.88781434,4.82108396 4.80079566,4.70733661 L4.6550383,4.84129785 C4.59707306,4.89482259 4.50669258,4.89122285 4.45316784,4.83325762 C4.3996431,4.77529238 4.40324284,4.6849119 4.46120808,4.63138716 L4.62672559,4.48051663 C4.59422312,4.43829366 4.5612706,4.39555573 4.52787177,4.35230938 C4.4796469,4.28986559 4.49117361,4.2001509 4.55361741,4.15192603 C4.6160612,4.10370116 4.70577589,4.11522787 4.75400076,4.17767167 L4.76126534,4.1880669 L4.81682546,3.98148714 C4.83696841,3.90520393 4.91513725,3.85969325 4.99142046,3.8798362 Z" id="Combined-Shape" fill="#FFD018" fill-rule="nonzero"></path>
                        <path d="M4.99142046,3.8798362 C5.06770367,3.89997915 5.11321434,3.97814799 5.0930714,4.0544312 L4.98281777,4.47480429 C5.07960235,4.60087891 5.17154867,4.72119923 5.2587378,4.83590776 L5.39630647,4.53031305 C5.42893252,4.45847707 5.51361572,4.42669115 5.58545169,4.45931721 C5.65728767,4.49194326 5.68907359,4.57662646 5.65644754,4.64846243 L5.45450873,5.09467238 C5.50443053,5.16099724 5.55251545,5.22516956 5.59878334,5.28722423 L5.68202075,5.10174162 C5.71464681,5.02990565 5.79933001,4.99811972 5.87116598,5.03074578 C5.94300195,5.06337183 5.97478787,5.14805503 5.94216182,5.219891 L5.79357271,5.55063093 C5.91414574,5.71520382 6.01918228,5.86182192 6.10919098,5.99137913 L6.25344932,5.67317019 C6.28607538,5.60133422 6.37075858,5.5695483 6.44259455,5.60217435 C6.51443052,5.6348004 6.54621645,5.7194836 6.51359039,5.79131958 L6.3021971,6.25676488 L6.29552609,6.26832268 C6.4529899,6.51242372 6.52833781,6.66471165 6.52833781,6.737081 C6.52833781,6.81597882 6.46437849,6.87993814 6.38548066,6.87993814 C6.30658284,6.87993814 6.24262352,6.81597882 6.24262352,6.737081 C6.24262352,6.70869471 6.18025337,6.60096172 6.05978413,6.42138824 L5.76855224,6.57649403 C5.69903847,6.61381296 5.61243346,6.58771389 5.57511453,6.51820013 C5.53779559,6.44868636 5.56389466,6.36208135 5.63340842,6.32476242 L5.89622928,6.18413798 C5.81445525,6.06794982 5.71869437,5.93467755 5.60947318,5.78524658 L5.19712367,6.00506545 C5.1276099,6.04238439 5.04100489,6.01628532 5.00368595,5.94677156 C4.96636702,5.87725779 4.99246609,5.79065278 5.06197985,5.75333384 L5.43853047,5.55303514 C5.37202624,5.46328177 5.30162101,5.36888802 5.22739939,5.27000256 L4.91140938,5.43363688 C4.84189562,5.47095582 4.7552906,5.44485675 4.71797167,5.37534298 C4.68065274,5.30582922 4.7067518,5.21922421 4.77626557,5.18190527 L5.05085741,5.03584736 C4.9711961,4.93063648 4.88781434,4.82108396 4.80079566,4.70733661 L4.6550383,4.84129785 C4.59707306,4.89482259 4.50669258,4.89122285 4.45316784,4.83325762 C4.3996431,4.77529238 4.40324284,4.6849119 4.46120808,4.63138716 L4.62672559,4.48051663 C4.59422312,4.43829366 4.5612706,4.39555573 4.52787177,4.35230938 C4.4796469,4.28986559 4.49117361,4.2001509 4.55361741,4.15192603 C4.6160612,4.10370116 4.70577589,4.11522787 4.75400076,4.17767167 L4.76126534,4.1880669 L4.81682546,3.98148714 C4.83696841,3.90520393 4.91513725,3.85969325 4.99142046,3.8798362 Z" id="Combined-Shape" fill="#FFD018" fill-rule="nonzero" transform="translate(5.471802, 5.377503) scale(-1, 1) translate(-5.471802, -5.377503) "></path>
                    </g>
                </g>
            </g>
        </g>
    </g>
</svg>