<?xml version="1.0" encoding="UTF-8"?>
<svg width="16px" height="12px" viewBox="0 0 16 12" version="1.1" xmlns="http://www.w3.org/2000/svg" xmlns:xlink="http://www.w3.org/1999/xlink">
    <!-- Generator: Sketch 61 (89581) - https://sketch.com -->
    <title>flags/S/African Union</title>
    <desc>Created with Sketch.</desc>
    <defs>
        <rect id="path-1" x="0" y="0" width="16" height="12"></rect>
        <rect id="path-3" x="0" y="0" width="16" height="12"></rect>
    </defs>
    <g id="flags/S/African-Union" stroke="none" stroke-width="1" fill="none" fill-rule="evenodd">
        <g id="flag">
            <mask id="mask-2" fill="white">
                <use xlink:href="#path-1"></use>
            </mask>
            <g id="mask"></g>
            <g id="contents" mask="url(#mask-2)">
                <mask id="mask-4" fill="white">
                    <use xlink:href="#path-3"></use>
                </mask>
                <use id="background" fill="#19724D" xlink:href="#path-3"></use>
                <polygon id="Star" fill="#F7FCFF" fill-rule="nonzero" mask="url(#mask-4)" points="7.7877153 7.50893909 6.93081541 9.8544782 7.40435079 7.4026227 5.96957886 9.44645749 7.06156581 7.20070692 5.14669918 8.80355343 6.7827206 6.91695197 4.51825426 7.96957886 6.58681799 6.57069529 4.12707159 7.00136777 6.48720843 6.18553369 3.99980962 5.96490214 6.49068014 5.7877153 4.14514103 4.93081541 6.59699653 5.40435079 4.55316174 3.96957886 6.79891231 5.06156581 5.1960658 3.14669918 7.08266726 4.7827206 6.03004037 2.51825426 7.42892394 4.58681799 6.99825146 2.12707159 7.81408554 4.48720843 8.03471709 1.99980962 8.21190393 4.49068014 9.06880382 2.14514103 8.59526844 4.59699653 10.0300404 2.55316174 8.93805342 4.79891231 10.85292 3.1960658 9.21689863 5.08266726 11.481365 4.03004037 9.41280124 5.42892394 11.8725476 4.99825146 9.5124108 5.81408554 11.9998096 6.03471709 9.50893909 6.21190393 11.8544782 7.06880382 9.4026227 6.59526844 11.4464575 8.03004037 9.20070692 6.93805342 10.8035534 8.85292005 8.91695197 7.21689863 9.96957886 9.48136497 8.57069529 7.41280124 9.00136777 9.87254764 8.18553369 7.5124108 7.96490214 9.99980962"></polygon>
                <path d="M8.09171919,3.44176353 L8.09171919,3.4163252 L8.2176848,3.31975509 L8.73047059,3.46739853 L9.12704472,3.39722471 L9.24446904,3.49569497 L9.23410757,3.7501809 L9.43634252,4.15918001 L9.60177817,4.51106724 L9.68083904,4.66486364 L9.81827333,4.81869801 L10.0861185,5.10005905 L10.0861185,5.10116077 L10.183693,5.10388571 L10.4672421,5.00557667 L10.6,5.10005905 L10.5940773,5.36878779 L10.4165944,5.82773791 L10.1356866,6.08293638 L9.7780833,6.55739748 L9.77595976,6.77686916 L9.8496608,7.17300027 L9.73306544,7.56150554 L9.36745417,7.74827244 L9.36745417,8.2542684 L9.26745417,8.3542684 L9.15620788,8.3542684 L9.13483683,8.56953096 L8.61721118,9.02130288 L8.39331686,9.01066896 L8.23659351,9.08936608 L8.10816992,9.05495016 L7.98243731,8.83384175 L7.99015846,8.78653518 L7.92269656,8.61400823 L7.77018335,8.40461207 L7.72728363,8.03667398 L7.56846417,7.74308392 L7.54031853,7.68801977 L7.51464057,7.58403121 L7.51811484,7.4518472 L7.56245689,7.29066384 L7.6262426,7.15091914 L7.63034856,6.82572862 L7.58353698,6.62706964 L7.3773892,6.41129451 L7.28064973,6.16132203 L7.37107062,5.98521079 L7.4119974,5.89151383 L7.36965308,5.85412068 L7.1133698,5.82389264 L6.97134166,5.6780678 L6.76840494,5.75292147 L6.41584468,5.85412068 L5.94496662,5.82162846 L5.75033585,5.60002062 L5.66911367,5.39528803 L5.48491657,5.15123891 L5.40784593,4.94234042 L5.47082712,4.81306892 L5.49643959,4.25896143 L5.59280683,4.15706575 L5.7735008,3.80839645 L5.94904269,3.63998173 L6.0764813,3.52735628 L6.15321935,3.35369141 L6.36405756,3.10093544 L6.53097283,2.99988951 L6.68275995,3.08543537 L6.68275995,3.0884632 L6.71681718,3.08913818 L7.5095805,2.90265688 L7.63247847,3 L7.58324763,3.21106192 L7.89055861,3.39798243 L8.09171919,3.44176353 Z M9.74661245,7.70881093 L9.73300531,7.54935735 L9.85201173,7.43563031 L9.95778964,7.41389738 L10.1393962,7.3969457 L10.3172109,7.21568536 L10.4141066,7.18902274 L10.5255097,7.21841376 L10.5997011,7.32283104 L10.5636205,7.57354912 L10.0473278,8.19865102 L9.79833395,8.23606008 L9.64190166,8.15376457 L9.59122062,8.0570458 L9.56783233,7.90520976 L9.60808579,7.80894073 L9.74661245,7.70881093 Z" id="Combined-Shape" stroke="#F7FCFF" stroke-width="0.2" fill="#19724D" fill-rule="nonzero" mask="url(#mask-4)"></path>
                <polygon id="star---55" fill="#FECA00" mask="url(#mask-4)" points="8 1.75 7.70610737 1.9045085 7.76223587 1.57725425 7.52447174 1.3454915 7.85305369 1.29774575 8 1 8.14694631 1.29774575 8.47552826 1.3454915 8.23776413 1.57725425 8.29389263 1.9045085"></polygon>
                <polygon id="star---55" fill="#FECA00" mask="url(#mask-4)" transform="translate(9.164686, 1.653334) rotate(15.000000) translate(-9.164686, -1.653334) " points="9.1646857 1.90333378 8.87079308 2.05784228 8.92692157 1.73058803 8.68915744 1.49882528 9.01773939 1.45107953 9.1646857 1.15333378 9.31163202 1.45107953 9.64021396 1.49882528 9.40244983 1.73058803 9.45857833 2.05784228"></polygon>
                <polygon id="star---55" fill="#FECA00" mask="url(#mask-4)" transform="translate(10.250000, 2.102886) rotate(30.000000) translate(-10.250000, -2.102886) " points="10.25 2.35288568 9.95610737 2.50739418 10.0122359 2.18013993 9.77447174 1.94837719 10.1030537 1.90063143 10.25 1.60288568 10.3969463 1.90063143 10.7255283 1.94837719 10.4877641 2.18013993 10.5438926 2.50739418"></polygon>
                <polygon id="star---55" fill="#FECA00" mask="url(#mask-4)" transform="translate(11.181981, 2.818019) rotate(45.000000) translate(-11.181981, -2.818019) " points="11.1819805 3.06801948 10.8880879 3.22252798 10.9442164 2.89527373 10.7064523 2.66351099 11.0350342 2.61576524 11.1819805 2.31801948 11.3289268 2.61576524 11.6575088 2.66351099 11.4197446 2.89527373 11.4758731 3.22252798"></polygon>
                <polygon id="star---55" fill="#FECA00" mask="url(#mask-4)" transform="translate(11.897114, 3.750000) rotate(60.000000) translate(-11.897114, -3.750000) " points="11.8971143 4 11.6032217 4.1545085 11.6593502 3.82725425 11.4215861 3.5954915 11.750168 3.54774575 11.8971143 3.25 12.0440606 3.54774575 12.3726426 3.5954915 12.1348784 3.82725425 12.1910069 4.1545085"></polygon>
                <polygon id="star---55" fill="#FECA00" mask="url(#mask-4)" transform="translate(12.346666, 4.835314) rotate(75.000000) translate(-12.346666, -4.835314) " points="12.3466662 5.0853143 12.0527736 5.23982279 12.1089021 4.91256855 11.871138 4.6808058 12.1997199 4.63306005 12.3466662 4.3353143 12.4936125 4.63306005 12.8221945 4.6808058 12.5844303 4.91256855 12.6405588 5.23982279"></polygon>
                <polygon id="star---55" fill="#FECA00" mask="url(#mask-4)" transform="translate(12.500000, 6.000000) rotate(90.000000) translate(-12.500000, -6.000000) " points="12.5 6.25 12.2061074 6.4045085 12.2622359 6.07725425 12.0244717 5.8454915 12.3530537 5.79774575 12.5 5.5 12.6469463 5.79774575 12.9755283 5.8454915 12.7377641 6.07725425 12.7938926 6.4045085"></polygon>
                <polygon id="star---55" fill="#FECA00" mask="url(#mask-4)" transform="translate(12.346666, 7.164686) rotate(105.000000) translate(-12.346666, -7.164686) " points="12.3466662 7.4146857 12.0527736 7.5691942 12.1089021 7.24193995 11.871138 7.01017721 12.1997199 6.96243145 12.3466662 6.6646857 12.4936125 6.96243145 12.8221945 7.01017721 12.5844303 7.24193995 12.6405588 7.5691942"></polygon>
                <polygon id="star---55" fill="#FECA00" mask="url(#mask-4)" transform="translate(11.897114, 8.250000) rotate(120.000000) translate(-11.897114, -8.250000) " points="11.8971143 8.5 11.6032217 8.6545085 11.6593502 8.32725425 11.4215861 8.0954915 11.750168 8.04774575 11.8971143 7.75 12.0440606 8.04774575 12.3726426 8.0954915 12.1348784 8.32725425 12.1910069 8.6545085"></polygon>
                <polygon id="star---55" fill="#FECA00" mask="url(#mask-4)" transform="translate(11.181981, 9.181981) rotate(135.000000) translate(-11.181981, -9.181981) " points="11.1819805 9.43198052 10.8880879 9.58648901 10.9442164 9.25923476 10.7064523 9.02747202 11.0350342 8.97972627 11.1819805 8.68198052 11.3289268 8.97972627 11.6575088 9.02747202 11.4197446 9.25923476 11.4758731 9.58648901"></polygon>
                <polygon id="star---55" fill="#FECA00" mask="url(#mask-4)" transform="translate(10.250000, 9.897114) rotate(150.000000) translate(-10.250000, -9.897114) " points="10.25 10.1471143 9.95610737 10.3016228 10.0122359 9.97436857 9.77447174 9.74260582 10.1030537 9.69486007 10.25 9.39711432 10.3969463 9.69486007 10.7255283 9.74260582 10.4877641 9.97436857 10.5438926 10.3016228"></polygon>
                <polygon id="star---55" fill="#FECA00" mask="url(#mask-4)" transform="translate(9.164686, 10.346666) rotate(165.000000) translate(-9.164686, -10.346666) " points="9.1646857 10.5966662 8.87079308 10.7511747 8.92692157 10.4239205 8.68915744 10.1921577 9.01773939 10.144412 9.1646857 9.84666622 9.31163202 10.144412 9.64021396 10.1921577 9.40244983 10.4239205 9.45857833 10.7511747"></polygon>
                <polygon id="star---55" fill="#FECA00" mask="url(#mask-4)" transform="translate(8.000000, 10.500000) rotate(180.000000) translate(-8.000000, -10.500000) " points="8 10.75 7.70610737 10.9045085 7.76223587 10.5772542 7.52447174 10.3454915 7.85305369 10.2977458 8 10 8.14694631 10.2977458 8.47552826 10.3454915 8.23776413 10.5772542 8.29389263 10.9045085"></polygon>
                <polygon id="star---55" fill="#FECA00" mask="url(#mask-4)" transform="translate(6.835314, 10.346666) rotate(195.000000) translate(-6.835314, -10.346666) " points="6.8353143 10.5966662 6.54142167 10.7511747 6.59755017 10.4239205 6.35978604 10.1921577 6.68836798 10.144412 6.8353143 9.84666622 6.98226061 10.144412 7.31084256 10.1921577 7.07307843 10.4239205 7.12920692 10.7511747"></polygon>
                <polygon id="star---55" fill="#FECA00" mask="url(#mask-4)" transform="translate(5.750000, 9.897114) rotate(210.000000) translate(-5.750000, -9.897114) " points="5.75 10.1471143 5.45610737 10.3016228 5.51223587 9.97436857 5.27447174 9.74260582 5.60305369 9.69486007 5.75 9.39711432 5.89694631 9.69486007 6.22552826 9.74260582 5.98776413 9.97436857 6.04389263 10.3016228"></polygon>
                <polygon id="star---55" fill="#FECA00" mask="url(#mask-4)" transform="translate(4.818019, 9.181981) rotate(225.000000) translate(-4.818019, -9.181981) " points="4.81801948 9.43198052 4.52412686 9.58648901 4.58025536 9.25923476 4.34249123 9.02747202 4.67107317 8.97972627 4.81801948 8.68198052 4.9649658 8.97972627 5.29354774 9.02747202 5.05578361 9.25923476 5.11191211 9.58648901"></polygon>
                <polygon id="star---55" fill="#FECA00" mask="url(#mask-4)" transform="translate(4.102886, 8.250000) rotate(240.000000) translate(-4.102886, -8.250000) " points="4.10288568 8.5 3.80899306 8.6545085 3.86512155 8.32725425 3.62735742 8.0954915 3.95593937 8.04774575 4.10288568 7.75 4.249832 8.04774575 4.57841394 8.0954915 4.34064981 8.32725425 4.39677831 8.6545085"></polygon>
                <polygon id="star---55" fill="#FECA00" mask="url(#mask-4)" transform="translate(3.653334, 7.164686) rotate(255.000000) translate(-3.653334, -7.164686) " points="3.65333378 7.4146857 3.35944116 7.5691942 3.41556965 7.24193995 3.17780552 7.01017721 3.50638747 6.96243145 3.65333378 6.6646857 3.80028009 6.96243145 4.12886204 7.01017721 3.89109791 7.24193995 3.94722641 7.5691942"></polygon>
                <polygon id="star---55" fill="#FECA00" mask="url(#mask-4)" transform="translate(3.500000, 6.000000) rotate(270.000000) translate(-3.500000, -6.000000) " points="3.5 6.25 3.20610737 6.4045085 3.26223587 6.07725425 3.02447174 5.8454915 3.35305369 5.79774575 3.5 5.5 3.64694631 5.79774575 3.97552826 5.8454915 3.73776413 6.07725425 3.79389263 6.4045085"></polygon>
                <polygon id="star---55" fill="#FECA00" mask="url(#mask-4)" transform="translate(3.653334, 4.835314) rotate(285.000000) translate(-3.653334, -4.835314) " points="3.65333378 5.0853143 3.35944116 5.23982279 3.41556965 4.91256855 3.17780552 4.6808058 3.50638747 4.63306005 3.65333378 4.3353143 3.80028009 4.63306005 4.12886204 4.6808058 3.89109791 4.91256855 3.94722641 5.23982279"></polygon>
                <polygon id="star---55" fill="#FECA00" mask="url(#mask-4)" transform="translate(4.102886, 3.750000) rotate(300.000000) translate(-4.102886, -3.750000) " points="4.10288568 4 3.80899306 4.1545085 3.86512155 3.82725425 3.62735742 3.5954915 3.95593937 3.54774575 4.10288568 3.25 4.249832 3.54774575 4.57841394 3.5954915 4.34064981 3.82725425 4.39677831 4.1545085"></polygon>
                <polygon id="star---55" fill="#FECA00" mask="url(#mask-4)" transform="translate(4.818019, 2.818019) rotate(315.000000) translate(-4.818019, -2.818019) " points="4.81801948 3.06801948 4.52412686 3.22252798 4.58025536 2.89527373 4.34249123 2.66351099 4.67107317 2.61576524 4.81801948 2.31801948 4.9649658 2.61576524 5.29354774 2.66351099 5.05578361 2.89527373 5.11191211 3.22252798"></polygon>
                <polygon id="star---55" fill="#FECA00" mask="url(#mask-4)" transform="translate(5.750000, 2.102886) rotate(330.000000) translate(-5.750000, -2.102886) " points="5.75 2.35288568 5.45610737 2.50739418 5.51223587 2.18013993 5.27447174 1.94837719 5.60305369 1.90063143 5.75 1.60288568 5.89694631 1.90063143 6.22552826 1.94837719 5.98776413 2.18013993 6.04389263 2.50739418"></polygon>
                <polygon id="star---55" fill="#FECA00" mask="url(#mask-4)" transform="translate(6.835314, 1.653334) rotate(345.000000) translate(-6.835314, -1.653334) " points="6.8353143 1.90333378 6.54142167 2.05784228 6.59755017 1.73058803 6.35978604 1.49882528 6.68836798 1.45107953 6.8353143 1.15333378 6.98226061 1.45107953 7.31084256 1.49882528 7.07307843 1.73058803 7.12920692 2.05784228"></polygon>
            </g>
        </g>
    </g>
</svg>