<?xml version="1.0" encoding="UTF-8"?>
<svg width="16px" height="12px" viewBox="0 0 16 12" version="1.1" xmlns="http://www.w3.org/2000/svg" xmlns:xlink="http://www.w3.org/1999/xlink">
    <!-- Generator: Sketch 61 (89581) - https://sketch.com -->
    <title>flags/S/GQ - Equatorial Guinea</title>
    <desc>Created with Sketch.</desc>
    <defs>
        <rect id="path-1" x="0" y="0" width="15.999999" height="11.9999993"></rect>
        <rect id="path-3" x="0" y="0" width="16.3839987" height="12.287999"></rect>
        <polygon id="path-5" points="0 0 0 12.287999 4.09599966 6.22179981"></polygon>
    </defs>
    <g id="flags/S/GQ---Equatorial-Guinea" stroke="none" stroke-width="1" fill="none" fill-rule="evenodd">
        <g id="flag">
            <mask id="mask-2" fill="white">
                <use xlink:href="#path-1"></use>
            </mask>
            <g id="mask"></g>
            <g id="contents" mask="url(#mask-2)">
                <mask id="mask-4" fill="white">
                    <use xlink:href="#path-3"></use>
                </mask>
                <use id="background" fill="#F7FCFF" xlink:href="#path-3"></use>
                <rect id="top-n-bottom" fill="#009D00" mask="url(#mask-4)" x="0" y="0" width="16.3839987" height="4.09599966"></rect>
                <rect id="top-n-bottom" fill="#FFFFFF" mask="url(#mask-4)" x="0" y="4.09599966" width="16.3839987" height="4.09599966"></rect>
                <rect id="top-n-bottom" fill="#F80000" mask="url(#mask-4)" x="0" y="8.19199933" width="16.3839987" height="4.09599966"></rect>
                <mask id="mask-6" fill="white">
                    <use xlink:href="#path-5"></use>
                </mask>
                <use id="triangle" fill="#0075D5" xlink:href="#path-5"></use>
            </g>
            <g id="stars" mask="url(#mask-2)" fill="#FFD500" stroke="#000000" stroke-width="0.03">
                <g transform="translate(6.655999, 3.891200)" id="Star">
                    <path d="M0.76101982,0.882722955 L0.774980054,0.882722955 L0.903688824,0.977643947 L0.879264986,0.796812814 L1.00931341,0.703735698 L0.829785402,0.671084256 L0.781450978,0.518638444 L0.694920406,0.679289875 L0.534999664,0.678150298 L0.661048838,0.810089785 L0.610546808,0.961831299 L0.76101982,0.882722955 Z" transform="translate(0.768000, 0.768000) scale(1, -1) rotate(-15.000000) translate(-0.768000, -0.768000) "></path>
                    <path d="M1.27301978,0.882722955 L1.28698001,0.882722955 L1.41568878,0.977643947 L1.39126494,0.796812814 L1.52131337,0.703735698 L1.34178536,0.671084256 L1.29345094,0.518638444 L1.20692036,0.679289875 L1.04699962,0.678150298 L1.1730488,0.810089785 L1.12254677,0.961831299 L1.27301978,0.882722955 Z" transform="translate(1.280000, 0.768000) scale(1, -1) rotate(-15.000000) translate(-1.280000, -0.768000) "></path>
                    <path d="M1.78501974,0.882722955 L1.79897997,0.882722955 L1.92768874,0.977643947 L1.9032649,0.796812814 L2.03331333,0.703735698 L1.85378532,0.671084256 L1.80545089,0.518638444 L1.71892032,0.679289875 L1.55899958,0.678150298 L1.68504875,0.810089785 L1.63454672,0.961831299 L1.78501974,0.882722955 Z" transform="translate(1.792000, 0.768000) scale(1, -1) rotate(-15.000000) translate(-1.792000, -0.768000) "></path>
                    <path d="M2.29701969,0.882722955 L2.31097993,0.882722955 L2.4396887,0.977643947 L2.41526486,0.796812814 L2.54531328,0.703735698 L2.36578528,0.671084256 L2.31745085,0.518638444 L2.23092028,0.679289875 L2.07099954,0.678150298 L2.19704871,0.810089785 L2.14654668,0.961831299 L2.29701969,0.882722955 Z" transform="translate(2.304000, 0.768000) scale(1, -1) rotate(-15.000000) translate(-2.304000, -0.768000) "></path>
                    <path d="M2.80901965,0.882722955 L2.82297989,0.882722955 L2.95168866,0.977643947 L2.92726482,0.796812814 L3.05731324,0.703735698 L2.87778523,0.671084256 L2.82945081,0.518638444 L2.74292024,0.679289875 L2.5829995,0.678150298 L2.70904867,0.810089785 L2.65854664,0.961831299 L2.80901965,0.882722955 Z" transform="translate(2.816000, 0.768000) scale(1, -1) rotate(-15.000000) translate(-2.816000, -0.768000) "></path>
                    <path d="M3.32101961,0.882722955 L3.33497984,0.882722955 L3.46368861,0.977643947 L3.43926478,0.796812814 L3.5693132,0.703735698 L3.38978519,0.671084256 L3.34145077,0.518638444 L3.2549202,0.679289875 L3.09499945,0.678150298 L3.22104863,0.810089785 L3.1705466,0.961831299 L3.32101961,0.882722955 Z" transform="translate(3.328000, 0.768000) scale(1, -1) rotate(-15.000000) translate(-3.328000, -0.768000) "></path>
                </g>
            </g>
            <path d="M7.70999937,5.14999958 L7.70999937,6.65599945 C7.70999937,7.20497045 8.15502829,7.64999937 8.70399929,7.64999937 C9.25297028,7.64999937 9.6979992,7.20497045 9.6979992,6.65599945 L9.7279992,5.14999958 L7.70999937,5.14999958 Z" id="Rectangle" stroke="#373737" stroke-width="0.06" mask="url(#mask-2)"></path>
            <path d="M8.56390957,6.12343079 C8.49505593,6.93077838 8.42626403,7.35891632 8.35753389,7.4078446 C8.25443868,7.48123703 8.85158196,7.51788693 8.90864094,7.46286577 C8.96569993,7.4078446 8.64823213,6.42101439 8.75744081,6.12343079 C8.83024659,5.92504172 8.92528315,5.81780911 9.04255048,5.80173297 C8.8947213,5.77048638 8.79968475,5.78462762 8.75744081,5.84415669 C8.71519687,5.90368577 8.63108015,5.88954452 8.50509065,5.80173297 L8.56390957,6.12343079 Z" id="Path-456" fill="#6F3E1D" mask="url(#mask-2)"></path>
            <path d="M8.54132581,6.05500046 L8.46186616,6.05500046 C8.42600037,6.19519949 8.36693686,6.23024925 8.28467562,6.16014973 C8.20241439,6.09005022 8.10325563,6.06735639 7.98719935,6.09206826 C7.99760719,6.00817032 8.06596197,5.94954521 8.19226369,5.91619293 C8.31856541,5.88284066 8.4084329,5.73075196 8.46186616,5.45992683 C8.64059961,5.39339714 8.78433345,5.42830119 8.8930677,5.56463899 C9.00180195,5.70097679 9.13275945,5.74006262 9.28594021,5.68189649 C9.39789562,5.74555577 9.42588447,5.82365458 9.36990677,5.91619293 C9.28594021,6.05500046 9.1426936,6.15654349 9.01788065,6.05500046 C8.93467202,5.98730511 8.7758204,5.98730511 8.54132581,6.05500046 Z" id="Path-457" fill="#009D29" mask="url(#mask-2)"></path>
        </g>
    </g>
</svg>