<?xml version="1.0" encoding="UTF-8"?>
<svg width="16px" height="12px" viewBox="0 0 16 12" version="1.1" xmlns="http://www.w3.org/2000/svg" xmlns:xlink="http://www.w3.org/1999/xlink">
    <!-- Generator: Sketch 61 (89581) - https://sketch.com -->
    <title>flags/S/KN-SK - Saint Kitts and Nevis</title>
    <desc>Created with Sketch.</desc>
    <defs>
        <rect id="path-1" x="0" y="0" width="16" height="12" rx="-1"></rect>
        <polygon id="path-3" points="2 2 2 14 18 2"></polygon>
    </defs>
    <g id="flags/S/KN-SK---Saint-Kitts-and-Nevis" stroke="none" stroke-width="1" fill="none" fill-rule="evenodd">
        <g id="flag">
            <mask id="mask-2" fill="white">
                <use xlink:href="#path-1"></use>
            </mask>
            <g id="mask"></g>
            <g id="contents" mask="url(#mask-2)">
                <g transform="translate(-2.000000, -2.000000)">
                    <rect id="background" stroke="none" fill="#C51918" fill-rule="evenodd" x="2" y="2" width="16" height="12"></rect>
                    <mask id="mask-4" fill="white">
                        <use xlink:href="#path-3"></use>
                    </mask>
                    <use id="left" stroke="none" fill="#5EAA22" fill-rule="evenodd" xlink:href="#path-3"></use>
                    <path d="M2.67963694,16.3795212 L-0.823633461,12.4714231 L18.357116,-0.331359308 L21.8603864,3.57673882 L2.67963694,16.3795212 Z" id="Path-14" stroke="#FFD018" stroke-width="1.25" fill="#272727" fill-rule="nonzero"></path>
                    <polygon id="Star-5" stroke="none" fill="#F7FCFF" fill-rule="evenodd" transform="translate(7.590064, 9.641521) rotate(-29.000000) translate(-7.590064, -9.641521) " points="7.59096109 10.5768597 6.6556254 11.1415205 6.86896955 10.0396414 6.09006389 9.21499319 7.14474578 9.17040382 7.59096109 8.14152055 8.0371764 9.17040382 9.09006389 9.17040382 8.31295262 10.0396414 8.54690916 11.1415205"></polygon>
                    <polygon id="Star-5" stroke="none" fill="#F7FCFF" fill-rule="evenodd" transform="translate(12.590064, 6.364939) rotate(-29.000000) translate(-12.590064, -6.364939) " points="12.5909611 7.30027867 11.6556254 7.86493948 11.8689696 6.76306031 11.0900639 5.93841212 12.1447458 5.89382275 12.5909611 4.86493948 13.0371764 5.89382275 14.0900639 5.89382275 13.3129526 6.76306031 13.5469092 7.86493948"></polygon>
                </g>
            </g>
        </g>
    </g>
</svg>