<?xml version="1.0" encoding="UTF-8"?>
<svg width="16px" height="12px" viewBox="0 0 16 12" version="1.1" xmlns="http://www.w3.org/2000/svg" xmlns:xlink="http://www.w3.org/1999/xlink">
    <!-- Generator: Sketch 61 (89581) - https://sketch.com -->
    <title>flags/S/LI - Liechtenstein</title>
    <desc>Created with Sketch.</desc>
    <defs>
        <rect id="path-1" x="0" y="0" width="16" height="12"></rect>
        <rect id="path-3" x="0" y="0" width="16" height="12"></rect>
    </defs>
    <g id="flags/S/LI---Liechtenstein" stroke="none" stroke-width="1" fill="none" fill-rule="evenodd">
        <g id="flag">
            <mask id="mask-2" fill="white">
                <use xlink:href="#path-1"></use>
            </mask>
            <g id="mask"></g>
            <g id="contents" mask="url(#mask-2)">
                <mask id="mask-4" fill="white">
                    <use xlink:href="#path-3"></use>
                </mask>
                <use id="background" fill="#E31D1C" xlink:href="#path-3"></use>
                <rect id="top" fill="#2E42A5" mask="url(#mask-4)" x="0" y="0" width="16" height="6"></rect>
                <g id="mark" mask="url(#mask-4)">
                    <g transform="translate(2.000000, 0.000000)">
                        <path d="M0.399226428,5.5265867 C0.801447574,5.77695152 1.4685868,5.90213393 2.4006441,5.90213393 C3.33270141,5.90213393 4.0460965,5.77695152 4.54082937,5.5265867 C3.80988363,5.10167732 3.11763033,4.88922263 2.46406949,4.88922263 C1.81050865,4.88922263 1.12222763,5.10167732 0.399226428,5.5265867 Z" id="Path-131" stroke="none" fill="#000000"></path>
                        <path d="M0.327279392,3.43396947 C-0.113452516,2.67655008 -0.0549385355,2.10201626 0.525365365,1.77336423 C1.21941117,1.38029508 1.68038195,1.26526279 2.32705928,1.26526279 C3.30315968,1.26526279 3.99435368,1.38156308 4.46165385,1.7877947 C4.86510352,2.13852004 4.94542124,2.68636134 4.71712939,3.40876821 L4.5979393,3.49610228 L0.435319739,3.49610228 L0.327279392,3.43396947 Z" id="Path-130" stroke="#000000" stroke-width="0.25" fill="#FFD83D"></path>
                        <path d="M-0.056918004,3.45299971 C0.508069693,3.1552536 1.35532136,3.00878985 2.48759468,3.00878985 C3.619868,3.00878985 4.46711966,3.1552536 5.03210736,3.45299971 L5.09091061,3.60736902 L4.49846096,5.19155107 L4.34452309,5.26720811 C3.74313996,5.08163405 3.12745935,4.98887602 2.49706633,4.98887602 C1.86634668,4.98887602 1.2385957,5.08173219 0.613462161,5.26758259 L0.460376618,5.19051063 L-0.116105106,3.60632858 L-0.056918004,3.45299971 Z" id="Path-129" stroke="#000000" stroke-width="0.25" fill="#FFD83D"></path>
                        <path d="M2.43697134,0.0108110421 L2.42902949,0.125 L2.44487271,0.125 L2.43697134,0.0108110421 Z M2.43147828,1.30141509 L2.43697067,1.40895703 L2.44242589,1.30141509 L2.43147828,1.30141509 Z M2.66624342,0.317523125 L2.79755766,0.29888226 L2.94012605,0.422641509 L2.94012605,0.739622642 L2.79732529,0.863348681 L2.65841042,0.843362669 L2.68786251,1.42003939 L2.56302521,1.55141509 L2.31092437,1.55141509 L2.18608488,1.42008243 L2.21531485,0.843854615 L2.07622283,0.863405776 L1.93382353,0.739622642 L1.93382353,0.422641509 L2.07555475,0.298766305 L2.20753223,0.316591858 L2.18622255,0.00862881393 L2.31092437,-0.125 L2.56302521,-0.125 L2.68772398,0.00867280748 L2.66624342,0.317523125 Z" id="Combined-Shape" stroke="#000000" stroke-width="0.25" fill="#FFD83D"></path>
                    </g>
                </g>
            </g>
        </g>
    </g>
</svg>