<?xml version="1.0" encoding="UTF-8"?>
<svg width="16px" height="12px" viewBox="0 0 16 12" version="1.1" xmlns="http://www.w3.org/2000/svg" xmlns:xlink="http://www.w3.org/1999/xlink">
    <!-- Generator: Sketch 61 (89581) - https://sketch.com -->
    <title>flags/S/MT - Malta</title>
    <desc>Created with Sketch.</desc>
    <defs>
        <rect id="path-1" x="0" y="0" width="16" height="12"></rect>
        <rect id="path-3" x="0" y="0" width="8" height="12"></rect>
    </defs>
    <g id="flags/S/MT---Malta" stroke="none" stroke-width="1" fill="none" fill-rule="evenodd">
        <g id="flag">
            <mask id="mask-2" fill="white">
                <use xlink:href="#path-1"></use>
            </mask>
            <use id="mask" fill="#F7FCFF" xlink:href="#path-1"></use>
            <path d="M6.75,5.25017534 L7.00017528,5.24999994 L6.75,5 L6.75,5.25017534 Z M6.75,6.7501674 L6.75,7 L6.99983254,6.75000006 L6.75,6.7501674 Z M4.91582852,7.274 L4.91582852,7.28276857 L4.94173212,7.53142296 L5.0259036,7.52265439 L5,7.274 L4.91582852,7.274 Z M4.75,8.75 L4.75,9 L5,8.75 L4.75,8.75 Z M3.250025,8.75 L3,8.75 L3.25,9.000025 L3.250025,8.75 Z M1.25,6.75016422 L1.00016427,6.75000005 L1.25,7 L1.25,6.75016422 Z M1.25,5.25 L1.25,5 L1,5.25 L1.25,5.25 Z M3.25002892,3.25 L3.25,2.99997108 L3,3.25 L3.25002892,3.25 Z M4.75014034,3.25 L5,3.25 L4.75000004,3.00014038 L4.75014034,3.25 Z" id="Combined-Shape" stroke="#FECA00" stroke-width="0.5" fill="#A0A0A0" mask="url(#mask-2)"></path>
            <g id="contents" mask="url(#mask-2)">
                <g transform="translate(8.000000, 0.000000)">
                    <mask id="mask-4" fill="white">
                        <use xlink:href="#path-3"></use>
                    </mask>
                    <use id="background" stroke="none" fill="#E31D1C" fill-rule="evenodd" xlink:href="#path-3"></use>
                    <rect id="right" stroke="none" fill="#FFFFFF" fill-rule="evenodd" mask="url(#mask-4)" x="-8" y="0" width="6" height="12"></rect>
                </g>
            </g>
        </g>
    </g>
</svg>