<?xml version="1.0" encoding="UTF-8"?>
<svg width="16px" height="12px" viewBox="0 0 16 12" version="1.1" xmlns="http://www.w3.org/2000/svg" xmlns:xlink="http://www.w3.org/1999/xlink">
    <!-- Generator: Sketch 61 (89581) - https://sketch.com -->
    <title>flags/S/PE - Peru</title>
    <desc>Created with Sketch.</desc>
    <defs>
        <rect id="path-1" x="0" y="0" width="16" height="12"></rect>
        <path d="M2.46778818,0.0771048783 L2.92343326,0.720472913 C2.7188597,1.14923747 2.69484012,1.62558847 2.85137452,2.1495259 C3.08617611,2.93543205 2.83894307,3.54141812 1.79478914,3.60870566 C1.64804583,3.63658942 1.54917623,3.66883639 1.49818033,3.70544658 L1.49891204,3.76765645 C1.49891204,3.75275689 1.49266853,3.73842636 1.48018151,3.72466486 C1.46368255,3.73842636 1.45743904,3.75275689 1.45743904,3.76765645 L1.45817075,3.70544658 C1.40717485,3.66883639 1.30830525,3.63658942 1.16156195,3.60870566 C0.117408014,3.54141812 -0.129825026,2.93543205 0.104976571,2.1495259 C0.26151097,1.62558847 0.237491387,1.14923747 0.0329178238,0.720472913 L0.0329178238,0.720472913 L0.488562907,0.0771048783 C0.670105587,0.211178595 0.827657765,0.278215453 0.961219438,0.278215453 C1.09478111,0.278215453 1.27401198,0.211178595 1.49891204,0.0771048783 L1.45727613,0.100104878 L1.45743904,0.0771048783 L1.45743904,0.0771048783 L1.47827613,0.0881048783 L1.49891204,0.0771048783 L1.49891204,0.0771048783 L1.49827613,0.100104878 L1.58689878,0.149504685 C1.75220469,0.235311864 1.88828231,0.278215453 1.99513165,0.278215453 C2.12869332,0.278215453 2.2862455,0.211178595 2.46778818,0.0771048783 Z" id="path-3"></path>
    </defs>
    <g id="flags/S/PE---Peru" stroke="none" stroke-width="1" fill="none" fill-rule="evenodd">
        <g id="flag">
            <mask id="mask-2" fill="white">
                <use xlink:href="#path-1"></use>
            </mask>
            <g id="mask"></g>
            <g id="contents" mask="url(#mask-2)">
                <polygon id="middle" fill="#F7FCFF" points="4 0 12.5 0 12.5 12 4 12"></polygon>
                <polygon id="right" fill="#F50101" points="12 0 16 0 16 12 12 12"></polygon>
                <polygon id="left" fill="#F50101" points="0 0 4 0 4 12 0 12"></polygon>
                <g id="mark" transform="translate(5.000000, 3.000000)">
                    <g id="top" transform="translate(2.086957, 0.000000)" fill="#A2BB6A" fill-rule="nonzero">
                        <path d="M0.783716458,1.37256845 L0.800462546,1.55354178 C0.301240923,1.60403145 0.0315344046,1.36010215 0.0315344046,0.853835768 C0.0315344046,0.351478835 0.295411846,0.0844534471 0.791559859,0.0812940406 L0.792619145,0.26310885 C0.390635724,0.265668628 0.205447448,0.453066122 0.205447448,0.853835768 C0.205447448,1.25069597 0.384806647,1.4129129 0.783716458,1.37256845 Z" id="Path-205"></path>
                        <path d="M1.7402382,1.37256845 L1.75698428,1.55354178 C1.25776266,1.60403145 0.988056144,1.36010215 0.988056144,0.853835768 C0.988056144,0.351478835 1.25193359,0.0844534471 1.7480816,0.0812940406 L1.74914088,0.26310885 C1.34715746,0.265668628 1.16196919,0.453066122 1.16196919,0.853835768 C1.16196919,1.25069597 1.34132839,1.4129129 1.7402382,1.37256845 Z" id="Path-205" transform="translate(1.372520, 0.820675) scale(-1, 1) translate(-1.372520, -0.820675) "></path>
                    </g>
                    <g id="twigs" transform="translate(0.000000, 0.545455)"></g>
                    <g id="middle" transform="translate(1.565217, 1.363636)">
                        <mask id="mask-4" fill="white">
                            <use xlink:href="#path-3"></use>
                        </mask>
                        <path stroke="#E8AA00" stroke-width="0.5" d="M1.47882677,3.43594193 C1.43846206,3.4516045 1.40386374,3.46877063 1.37354986,3.48805744 L1.32005052,3.53268032 C1.29036024,3.55744446 1.26572444,3.58649223 1.24714342,3.61875886 L1.24889762,3.76790026 L1.47817554,3.76924859 L1.70745347,3.76790026 L1.70922561,3.61723255 C1.69701049,3.59558418 1.68224782,3.57532118 1.66532337,3.55666934 L1.63861678,3.52723696 L1.60396652,3.50236139 C1.56866063,3.47701513 1.52725764,3.45519138 1.47882677,3.43594193 Z M1.51709963,0.100528633 L1.50384141,0.0774335654 L1.45743904,0.0771048783 L1.34072739,0.298189453 L1.47884439,0.371102111 L1.61651064,0.297718954 L1.49891204,0.0771048783 L1.44372791,0.0755791161 L1.45727613,0.100104878 L1.51709963,0.100528633 Z M1.65494035,3.90286267 C1.64982116,3.90506336 1.64614553,3.90697432 1.6439761,3.90853177 L1.54284108,3.76765645 L1.51604006,3.76765645 L1.64031251,3.9166494 C1.64539254,3.91241224 1.65028017,3.90780522 1.65494035,3.90286267 Z M1.54284108,3.76765645 L1.54247325,3.76714409 L1.51587366,3.76745695 L1.51604006,3.76765645 L1.43280202,3.76765645 L1.43311728,3.76737038 L1.41387783,3.76714409 L1.41351001,3.76765645 L1.24891204,3.76765645 C1.24891204,3.81902889 1.26801681,3.86287946 1.29503966,3.89266038 L1.37745776,3.81787517 L1.31237498,3.90853177 C1.29898886,3.89892181 1.22825717,3.8758522 1.14548475,3.85818817 C0.00582180127,3.78474582 -0.435598439,3.08556411 -0.134561238,2.07796028 C0.00486479414,1.61128639 -0.0159433642,1.19862364 -0.19271554,0.828127849 L-0.25589365,0.69571321 L0.431938155,-0.275501037 L0.637081857,-0.123997388 C0.779520365,-0.0188030606 0.890024786,0.0282154527 0.961219438,0.0282154527 C1.01555284,0.0282154527 1.09942209,0.00317142902 1.20832855,-0.0493567607 L1.21035916,-0.33602708 L1.47770786,-0.194892355 L1.76069866,-0.345740934 L1.7524461,-0.0472605091 C1.86046447,0.00431463708 1.94306885,0.0282154527 1.99513165,0.0282154527 C2.0663263,0.0282154527 2.17683072,-0.0188030606 2.31926923,-0.123997388 L2.52441293,-0.275501037 L3.21224474,0.69571321 L3.14906663,0.828127849 C2.97229445,1.19862364 2.95148629,1.61128639 3.09091232,2.07796028 C3.39194953,3.08556411 2.95052929,3.78474582 1.84145839,3.854311 C1.74646639,3.87236112 1.68140832,3.89148438 1.65494035,3.90286267 C1.68635891,3.86954039 1.70743904,3.8209668 1.70743904,3.76765645 L1.54284108,3.76765645 Z M1.54247325,3.76714409 L1.49818033,3.70544658 L1.74816304,3.7025063 L1.74889475,3.76471617 L1.54247325,3.76714409 Z M1.43280202,3.76765645 L1.41351001,3.76765645 L1.37745776,3.81787517 L1.43280202,3.76765645 Z M1.41387783,3.76714409 L1.20745634,3.76471617 L1.20818804,3.7025063 L1.45817075,3.70544658 L1.41387783,3.76714409 Z"></path>
                        <rect id="Rectangle-52" fill="#67BAFF" mask="url(#mask-4)" x="0.0869565217" y="0" width="1.39130435" height="1.90909091"></rect>
                        <rect id="Rectangle-52" fill="#FFFFFF" mask="url(#mask-4)" x="1.47826087" y="0" width="1.39130435" height="1.90909091"></rect>
                        <rect id="Rectangle-52" fill="#C51918" mask="url(#mask-4)" x="-0.0869565217" y="2.09090909" width="3.47826087" height="2.18181818"></rect>
                        <polygon id="Path-201" fill="#C9A951" fill-rule="nonzero" mask="url(#mask-4)" points="2.15217289 1.77384816 1.97825984 1.77384816 1.97825984 0.466496712 2.15217289 0.466496712"></polygon>
                        <polygon id="Path-202" fill="#C9A951" fill-rule="nonzero" mask="url(#mask-4)" points="2.08170955 1.17914692 1.99692479 1.3309932 1.69673805 1.16338118 1.78152282 1.0115349"></polygon>
                        <polygon id="Path-202" fill="#C9A951" fill-rule="nonzero" mask="url(#mask-4)" points="2.08170955 0.815510559 1.99692479 0.967356834 1.69673805 0.799744813 1.78152282 0.647898538"></polygon>
                        <polygon id="Path-202" fill="#C9A951" fill-rule="nonzero" mask="url(#mask-4)" transform="translate(2.237050, 1.178524) scale(-1, 1) translate(-2.237050, -1.178524) " points="2.42953564 1.17914692 2.34475088 1.3309932 2.04456414 1.16338118 2.1293489 1.0115349"></polygon>
                        <polygon id="Path-202" fill="#C9A951" fill-rule="nonzero" mask="url(#mask-4)" transform="translate(2.237050, 0.814888) scale(-1, 1) translate(-2.237050, -0.814888) " points="2.42953564 0.815510559 2.34475088 0.967356834 2.04456414 0.799744813 2.1293489 0.647898538"></polygon>
                        <path d="M1.12286786,0.42131114 C1.01804262,0.513002907 1.08566776,0.84808729 0.913892288,0.84808729 C0.74211682,0.84808729 0.500384981,0.597172071 0.439511986,0.76274007 C0.378638991,0.92830807 0.439511986,0.872678183 0.439511986,1.01369534 C0.439511986,1.1547125 0.293707946,1.54656477 0.366609966,1.61280799 C0.439511986,1.67905121 0.514212495,1.85359417 0.501266088,1.77188784 C0.488319681,1.69018151 0.433208362,1.57019015 0.456174933,1.43984291 C0.433971374,1.30517861 0.579033351,1.17565881 0.579033351,1.17565881 C0.579033351,1.17565881 0.563288689,1.31546681 0.551865631,1.36759102 C0.519985461,1.43773359 0.510516435,1.49609829 0.523458553,1.54268511 C0.556201976,1.67398732 0.579322461,1.74417537 0.592820005,1.75324927 C0.601586383,1.442351 0.61095503,1.26128226 0.620925948,1.21004306 C0.635882325,1.13318426 0.74249419,1.29673484 0.777957867,1.27820225 C0.786075131,1.49079177 0.783987261,1.60975292 0.771694257,1.63508568 C0.746766963,1.68537342 0.73893745,1.71854877 0.748205719,1.73461174 C0.771326203,1.79281203 0.792750293,1.81343644 0.812477988,1.79648497 C0.813173945,1.79527465 0.818520766,1.76634591 0.828518452,1.70969874 C0.816901328,1.67548797 0.820183701,1.61943897 0.838365569,1.54155175 C0.857517762,1.37004314 0.871055458,1.30289488 0.878978657,1.34010696 C0.875418571,1.42107945 0.878205744,1.48243497 0.887340175,1.52417351 C0.901928498,1.62779228 0.910684838,1.68528946 0.913609194,1.69666507 C0.983579609,1.79632406 1.01949499,1.82510938 1.02135533,1.78302104 C0.954282509,1.70304199 0.927929841,1.63262306 0.942297332,1.57176427 C0.90389926,1.39935316 0.911501248,1.29392592 0.965103297,1.25548252 C1.10730599,1.18970549 1.18268345,1.10051961 1.19123568,0.987924895 C1.21184002,0.85961001 1.22399249,0.766041097 1.22769311,0.707218157 C1.19649551,0.689923877 1.21313824,0.666091771 1.27762131,0.635721839 C1.38141923,0.595879231 1.40097963,0.548256996 1.3363025,0.492855133" id="Path-199" fill="#D18219" mask="url(#mask-4)"></path>
                    </g>
                    <path d="M1.1,0.843197722 L1.48666668,1.15303837 C0.983014148,1.98179973 1.1,2.76160839 1.1,3.26306089 C1.1,4.18775049 1.79484472,5.2549689 3.00529627,5.2549689 C3.9049671,5.2549689 4.8828199,4.5546153 5.11363339,3.69889563 C5.29537406,3.02510894 4.87836597,1.44181126 4.56370747,1.02858403 L4.93587454,0.843197722 C5.42423636,1.48454194 6.35024625,2.95417286 6.07912798,3.95931874 C5.7270288,5.26469389 4.34437982,6.2549689 3.00529627,6.2549689 C1.13007148,6.2549689 0.1,4.67287261 0.1,3.26306089 C0.1,2.54708068 0.509772628,1.81441817 1.1,0.843197722 Z" id="Path-2" fill="#00A854" fill-rule="nonzero"></path>
                    <ellipse id="Oval-78" fill="#FDD200" cx="3" cy="4.1" rx="1" ry="1"></ellipse>
                    <rect id="Rectangle-3" fill="#CA0000" x="1.5" y="5" width="3" height="1"></rect>
                </g>
            </g>
        </g>
    </g>
</svg>