<?xml version="1.0" encoding="UTF-8"?>
<svg width="16px" height="12px" viewBox="0 0 16 12" version="1.1" xmlns="http://www.w3.org/2000/svg" xmlns:xlink="http://www.w3.org/1999/xlink">
    <!-- Generator: Sketch 61 (89581) - https://sketch.com -->
    <title>flags/S/SX - Sint Maarten</title>
    <desc>Created with Sketch.</desc>
    <defs>
        <rect id="path-1" x="0" y="0" width="16" height="12"></rect>
        <rect id="path-3" x="0" y="0" width="16" height="12"></rect>
        <polygon id="path-5" points="0 -1 0 13 10 6"></polygon>
    </defs>
    <g id="flags/S/SX---Sint-Maarten" stroke="none" stroke-width="1" fill="none" fill-rule="evenodd">
        <g id="flag">
            <mask id="mask-2" fill="white">
                <use xlink:href="#path-1"></use>
            </mask>
            <g id="mask"></g>
            <g id="contents" mask="url(#mask-2)">
                <mask id="mask-4" fill="white">
                    <use xlink:href="#path-3"></use>
                </mask>
                <use id="background" fill="#E31D1C" xlink:href="#path-3"></use>
                <rect id="top" fill="#2E42A5" mask="url(#mask-4)" x="0" y="6" width="16" height="6"></rect>
                <mask id="mask-6" fill="white">
                    <use xlink:href="#path-5"></use>
                </mask>
                <use id="triangle" fill="#F7FCFF" xlink:href="#path-5"></use>
                <g id="mark" mask="url(#mask-6)">
                    <g transform="translate(1.000000, 3.000000)">
                        <g id="Group-7" stroke="none" stroke-width="1" fill="none" fill-rule="evenodd" transform="translate(1.510490, 0.000000)">
                            <ellipse id="Oval-52" fill="#FBCD17" cx="1.55244755" cy="0.797202797" rx="1.3006993" ry="1"></ellipse>
                            <path d="M1.48459667,0.364057497 C1.48459667,0.26109057 1.56004492,0.192682714 1.66622919,0.192682714 L2.0898679,0.192682714 C2.10161996,0.192670801 2.10161996,0.192670801 2.10883414,0.192700241 L2.11029975,0.442573533 L2.09856738,0.442851624 C2.07174577,0.443567111 2.07174577,0.443567111 2.02370408,0.445802537 C1.94423733,0.450039337 1.86904135,0.457322377 1.80729683,0.468054328 C1.81431442,0.473320135 1.82149649,0.478833126 1.8287196,0.48442373 C2.21211294,0.427259193 2.39288707,0.427259193 2.58779245,0.463017908 C2.61083279,0.467293331 2.61083279,0.467293331 2.63186168,0.471118308 C2.67925169,0.479544605 2.71205333,0.483057021 2.75358362,0.483057021 C2.79085421,0.483011727 2.79085421,0.483011727 2.81091632,0.483133272 C2.81536913,0.483206401 2.81536913,0.483206401 2.82314704,0.483663718 C2.82848292,0.483719594 2.82848292,0.483719594 2.87088413,0.497044695 L2.93419145,0.573601914 L2.87289353,0.718795811 C2.87494944,0.717867896 2.87494944,0.717867896 2.85201394,0.727618396 C2.82123604,0.734053409 2.82123604,0.734053409 2.81497811,0.734111928 C2.7620118,0.737998661 2.70731183,0.742249343 2.63925002,0.748442959 C2.44941065,0.765718319 2.23607737,0.790759751 1.9961651,0.826009706 C1.98894873,0.83551613 1.98024192,0.846192856 1.9700666,0.858670346 C1.94064072,0.88008634 1.92199388,0.884282884 1.85183145,0.895784304 C1.77960406,0.907624224 1.66205837,0.92193917 1.55819672,0.931762896 C1.50523673,0.936772103 1.45933879,0.940275662 1.42540164,0.941788416 C1.18630811,0.952446051 1.25772153,0.955537152 1.24229934,0.82947492 C1.23089489,0.736254094 1.19124967,0.723858718 1.27378693,0.701680345 C1.24327858,0.677850689 1.21340758,0.651647938 1.1848331,0.62270428 C1.13498719,0.572214374 1.12616435,0.567579185 1.13121883,0.566730305 C1.12820961,0.56723569 1.12462021,0.568527431 1.08359171,0.583961305 C0.988372356,0.618250865 0.893341582,0.626880325 0.75648186,0.600756756 C0.557251494,0.562727976 0.329170913,0.601673232 0.0706481319,0.721471654 L-0.0344636407,0.494642389 C0.268449158,0.354273812 0.548252766,0.306496735 0.803355202,0.355190288 C0.895156645,0.372713204 0.944876099,0.368198329 0.998888678,0.348747792 C1.03276637,0.335179362 1.06098276,0.325024958 1.08981221,0.320183165 C1.18489315,0.304214698 1.26138513,0.344400718 1.36274075,0.447065826 C1.48261017,0.568483926 1.53426561,0.581656702 1.54056512,0.603298259 C1.54095208,0.597610258 1.53958096,0.58758355 1.5369481,0.575486437 C1.49413795,0.533575426 1.473737,0.487882091 1.47521159,0.433100866 C1.47578776,0.411696304 1.47898956,0.39257227 1.4846919,0.375412613 C1.48462146,0.3718515 1.48459667,0.368098454 1.48459667,0.364057497 Z M1.48304904,0.911480258 C1.47440817,0.913224241 1.4664395,0.914880224 1.45914073,0.916447967 C1.47907453,0.912166273 1.49463842,0.908990457 1.50659593,0.90645703 L1.48304904,0.911480258 Z" id="Path-301" fill="#DA610A" fill-rule="nonzero"></path>
                        </g>
                        <path d="M4.76933424,1.24923497 C4.92858198,1.19552394 5.09826257,1.11442233 5.27870255,1.00739452 L4.91251206,0.717905764 C4.85566897,0.90007276 4.80792773,1.07717611 4.76933424,1.24923497 Z M3.00294932,4.75957916 C2.95681452,4.78797601 2.91118489,4.81822391 2.86607082,4.85031751 L2.76098919,4.92507129 L2.76098919,5.06557266 L3.00294932,5.06557266 L3.24490945,5.06557266 L3.24490945,4.9250713 L3.13982783,4.85031752 C3.09471376,4.81822392 3.04908413,4.78797602 3.00294932,4.75957916 Z M1.23656441,1.24923497 C1.19797092,1.07717611 1.15022968,0.90007276 1.09338659,0.717905764 L0.727196103,1.00739452 C0.907636076,1.11442233 1.07731667,1.19552394 1.23656441,1.24923497 Z" id="shield" stroke="#E31D1C" stroke-width="0.5" fill="#56C6F5" fill-rule="evenodd"></path>
                        <path d="M3.00669331,1.76923077 L3.39240759,2.11208791 L3.24897902,2.11123077 L3.24897902,2.29123077 L3.87812188,2.68351648 L3.87797902,3.59723077 L4.02097902,3.5978022 L4.02097902,3.76923077 L2.02097902,3.76923077 L2.02097902,3.5978022 L2.13497902,3.59723077 L2.13526474,2.68351648 L2.73497902,2.30923077 L2.73497902,2.11123077 L2.62097902,2.11208791 L3.00669331,1.76923077 Z" id="Combined-Shape" stroke="none" fill="#F7FCFF" fill-rule="evenodd"></path>
                        <path d="M2.97593694,5.51019358 C3.50645809,5.51019358 3.87168224,5.45227662 4.05975019,5.35355171 C4.10905451,5.26971035 4.1955249,5.22237782 4.28753867,5.22578306 C4.7007635,5.24107371 5.02080169,5.06699329 5.2723942,4.68438248 C5.54423912,4.2709727 5.59886177,3.68373943 5.42168406,2.91294144 L5.87149224,2.80954731 C6.07449925,3.69271363 6.00820428,4.4054328 5.65802921,4.93796361 C5.34424556,5.41515196 4.91641132,5.67003057 4.39427715,5.68730458 C4.12760123,5.88477046 3.66026075,5.97173204 2.97593694,5.97173204 C2.31391001,5.97173204 1.82305378,5.84318821 1.50823614,5.57006844 C0.793293946,5.4011657 0.33896352,5.11600798 0.160318763,4.69333982 C-0.0301141528,4.24278122 -0.0301141528,3.61729581 0.147524112,2.81156046 L0.598238859,2.9109283 C0.439297097,3.63185967 0.439297097,4.16787676 0.585444209,4.51365647 C0.687427459,4.75494579 0.983748719,4.95185885 1.48576623,5.08837958 L1.95217221,5.1881089 L1.92978116,5.30588577 C2.15731471,5.43888103 2.50505865,5.51019358 2.97593694,5.51019358 Z" id="Path-302" stroke="none" fill="#FBCD17" fill-rule="nonzero"></path>
                        <path d="M1.3570013,1.41196595 L1.61267653,1.5148238 L1.48483891,1.78059643 L1.84243007,1.59628119 L1.81465296,1.73274176 L1.73798979,2.10936479 L1.88450523,1.68048905 L1.88450523,2.05931937 L1.97402758,1.68048905 L2.23987587,1.76066537 C2.06264367,1.65107592 1.97402758,1.59628119 1.97402758,1.59628119 C1.97402758,1.59628119 2.06264367,1.56912873 2.23987587,1.5148238" id="Path-303" stroke="#73BE4A" stroke-width="0.5" fill="none" stroke-linecap="round" stroke-linejoin="round"></path>
                        <circle id="Oval-53" stroke="none" fill="#FBCD17" fill-rule="evenodd" cx="1.82517483" cy="1.6993007" r="1"></circle>
                        <path d="M4.21245064,1.38461538 C4.28048808,1.38461538 4.31674036,1.56776175 4.32120746,1.93405447 C4.41533829,1.95857031 4.50473477,2.01890662 4.58878644,2.11498355 L4.58878644,2.11498355 L3.85301589,2.11498355 C3.85301589,2.11498355 3.96338961,1.98881869 4.11028672,1.94013169 L4.11188811,2.01398601 C4.10611134,1.59440559 4.13963218,1.38461538 4.21245064,1.38461538 Z" id="Combined-Shape" stroke="none" fill="#F7FCFF" fill-rule="evenodd"></path>
                    </g>
                </g>
            </g>
        </g>
    </g>
</svg>